<svg class="___classes___" width="16" height="32" viewBox="0 0 16 32" xmlns="http://www.w3.org/2000/svg">
<path fill-rule="evenodd" clip-rule="evenodd" d="M2.95369 21.6746C3.1334 21.465 3.44905 21.4407 3.65872 21.6204L7.99999 25.3415L12.3413 21.6204C12.5509 21.4407 12.8666 21.465 13.0463 21.6746C13.226 21.8843 13.2017 22.1999 12.9921 22.3796L8.32538 26.3796C8.13814 26.5401 7.86184 26.5401 7.67459 26.3796L3.00793 22.3796C2.79826 22.1999 2.77398 21.8843 2.95369 21.6746Z" />
<path fill-rule="evenodd" clip-rule="evenodd" d="M7.67459 5.62037C7.86184 5.45988 8.13814 5.45988 8.32538 5.62037L12.9921 9.62037C13.2017 9.80008 13.226 10.1157 13.0463 10.3254C12.8666 10.5351 12.5509 10.5593 12.3413 10.3796L7.99999 6.65854L3.65872 10.3796C3.44905 10.5593 3.1334 10.5351 2.95369 10.3254C2.77398 10.1157 2.79826 9.80008 3.00793 9.62037L7.67459 5.62037Z" />
</svg>
