<?xml version="1.0" encoding="UTF-8" standalone="no"?>
<svg height="480" width="640" xmlns="http://www.w3.org/2000/svg">
  <desc>
    The United States of America flag, produced by Daniel McRae
  </desc>
  <defs>
    <clipPath id="a">
      <path d="M-123.43 0h682.67v512h-682.67z" fill-opacity=".67"/>
    </clipPath>
  </defs>
  <g clip-path="url(#a)" fill-rule="evenodd" transform="matrix(.94 0 0 .94 115.72 0)">
    <path d="M-123.43 233.05H723.1v205.97h-846.53z" fill="#fff"/>
    <path d="M-122.76 0h845.95v256.64h-845.95zM-122.52 385.87H729.6V512h-852.12z" fill="#081873"/>
    <path d="M-122.52 302.55h845.95v39.65h-845.95z" fill="#de3929"/>
    <path d="M130.92 399.168l6.65 20.468h21.522l-17.412 12.65 6.65 20.47-17.41-12.65-17.41 12.65 6.65-20.47-17.412-12.65h21.522M316.91 250.498l6.65 20.468h21.522l-17.412 12.65 6.65 20.47-17.41-12.65-17.41 12.65 6.65-20.47-17.412-12.65h21.522M88.27 335.448l6.65 20.468h21.523l-17.412 12.65 6.652 20.47-17.41-12.65-17.412 12.65 6.65-20.47-17.41-12.65h21.52M316.91 329.458l6.65 20.468h21.522l-17.412 12.65 6.65 20.47-17.41-12.65-17.41 12.65 6.65-20.47-17.412-12.65h21.522M269.82 188.178l6.65 20.468h21.522l-17.412 12.65 6.65 20.47-17.41-12.65-17.41 12.65 6.65-20.47-17.412-12.65h21.522M198.74 163.428l6.65 20.468h21.522l-17.412 12.65 6.65 20.47-17.41-12.65-17.41 12.65 6.65-20.47-17.412-12.65h21.522M127.65 186.788l6.65 20.468h21.522l-17.412 12.65 6.65 20.47-17.41-12.65-17.41 12.65 6.65-20.47-17.412-12.65H121M86.184 250.498l6.65 20.468h21.522l-17.412 12.65 6.65 20.47-17.41-12.65-17.41 12.65 6.65-20.47-17.412-12.65h21.522M198.74 420.408l6.65 20.468h21.522l-17.412 12.65 6.65 20.47-17.41-12.65-17.41 12.65 6.65-20.47-17.412-12.65h21.522M274.26 399.168l6.65 20.468h21.522l-17.412 12.65 6.65 20.47-17.41-12.65-17.41 12.65 6.65-20.47-17.412-12.65h21.522"
          fill="#ffce08"/>
  </g>
</svg>
