<?xml version="1.0" encoding="UTF-8" standalone="no"?>
<svg height="480" viewBox="0 0 213.33333 160" width="640" xmlns="http://www.w3.org/2000/svg" xmlns:xlink="http://www.w3.org/1999/xlink">
  <defs>
    <g id="c">
      <clipPath id="a">
        <path d="M-109 104a104 104 0 0 0 0-208h218a104 104 0 0 0 0 208z"/>
      </clipPath>
      <path clip-path="url(#a)" d="M-55 74a55 55 0 0 1 110 0V-74a55 55 0 0 1-110 0z" id="b"/>
      <use height="200" transform="rotate(90)" width="300" xlink:href="#b"/>
    </g>
  </defs>
  <path d="M0 0h213.33v160H0z" fill="#fff"/>
  <path d="M6.385 13.192h200.56v133.71H6.385z" fill="#fff"/>
  <path d="M93.296 13.192v53.484H6.386v26.742h86.91v53.484h26.742V93.418h86.91V66.676h-86.91V13.192H93.296z" fill="red"/>
  <use fill="red" height="200" transform="matrix(.67 0 0 .67 49.47 39.57)" width="300" xlink:href="#c"/>
  <use fill="red" height="200" transform="matrix(.67 0 0 .67 163.86 120.53)" width="300" xlink:href="#c"/>
  <use fill="red" height="200" transform="matrix(.67 0 0 .67 163.86 39.57)" width="300" xlink:href="#c"/>
  <use fill="red" height="200" transform="matrix(.67 0 0 .67 49.47 120.53)" width="300" xlink:href="#c"/>
</svg>
