<?xml version="1.0" encoding="UTF-8" standalone="no"?>
<svg height="480" id="svg548" version="1" width="640" x="0" xmlns="http://www.w3.org/2000/svg" xmlns:cc="http://creativecommons.org/ns#" xmlns:dc="http://purl.org/dc/elements/1.1/" xmlns:rdf="http://www.w3.org/1999/02/22-rdf-syntax-ns#"
     y="0">
 <metadata id="metadata4629">
  <rdf:RDF>
   <cc:Work rdf:about="">
  <dc:format>image/svg+xml</dc:format>
  <dc:type rdf:resource="http://purl.org/dc/dcmitype/StillImage"/>
   </cc:Work>
  </rdf:RDF>
 </metadata>
 <defs id="defs550">
  <clipPath clipPathUnits="userSpaceOnUse" id="clipPath3191">
   <rect fill-opacity="0.67" height="512" id="rect3193" width="682.67" x="-117.82" y=".000016181"/>
  </clipPath>
 </defs>
 <g clip-path="url(#clipPath3191)" id="flag" transform="matrix(.93750 0 0 .93750 110.46 -.000015169)">
  <g fill-rule="evenodd" id="g558" stroke-width="1pt" transform="matrix(24.381 0 0 24.381 -117.82 .00001745)">
   <rect height="7" id="rect551" width="42" x="0" y="0"/>
   <rect fill="#fff" height="7" id="rect552" width="42" x="0" y="7"/>
   <rect fill="#090" height="7" id="rect553" width="42" x="0" y="14"/>
   <path d="m0 21 21-10.5-21-10.5v21z" fill="#f00" id="path554"/>
   <polygon fill="#fff"
            id="polygon557"
            points="5.8385 11.852 6.0708 10.834 5.027 10.834 5.9674 10.381 5.3166 9.5648 6.2571 10.018 6.4894 9 6.4894 9 6.7216 10.018 7.6621 9.5648 7.0113 10.381 7.9518 10.834 6.9079 10.834 7.1402 11.852 6.4894 11.035"/>
  </g>
 </g>
</svg>
