<?xml version="1.0" encoding="UTF-8" standalone="no"?>
<svg height="480" id="svg548" version="1" width="640" x="0" xmlns="http://www.w3.org/2000/svg" xmlns:cc="http://creativecommons.org/ns#" xmlns:dc="http://purl.org/dc/elements/1.1/" xmlns:rdf="http://www.w3.org/1999/02/22-rdf-syntax-ns#"
     y="0">
 <metadata id="metadata4794">
  <rdf:RDF>
   <cc:Work rdf:about="">
  <dc:format>image/svg+xml</dc:format>
  <dc:type rdf:resource="http://purl.org/dc/dcmitype/StillImage"/>
   </cc:Work>
  </rdf:RDF>
 </metadata>
 <defs id="defs550">
  <clipPath clipPathUnits="userSpaceOnUse" id="clipPath5675">
   <rect fill-opacity="0.67" height="512" id="rect5677" width="682.67" x="-85.333" y="-.0000039058"/>
  </clipPath>
 </defs>
 <g clip-path="url(#clipPath5675)" fill-rule="evenodd" id="flag" transform="matrix(.9375 0 0 .9375 80 .0000036617)">
  <rect fill="#1b0073" height="512" id="rect815" stroke-width="1pt" width="768" x="-128" y="-.0000039058"/>
  <rect fill="#e60006" height="256" id="rect837" stroke-width="1pt" width="768" x="-128" y="128"/>
  <g fill="#fff" id="g1595" stroke="#e60000" transform="matrix(1.0321 0 0 1.0321 -128 .00022675)">
   <rect height="50.992" id="rect1035" stroke-width="1.1702" transform="translate(0 354.33)" width="315.35" x="214.37" y="-113.98"/>
   <path d="m220 280-5 15h320l-5-15h-310z" id="path632" stroke-width="1.25" transform="matrix(1.0187 0 0 .79988 -9.9654 67.378)"/>
   <path d="m245 280-5 15h60l-5-15h-50z" id="path982" stroke-width="1.1225" transform="matrix(1.2359 0 0 .79988 160.47 67.379)"/>
   <path d="m245 280-5 15h60l-5-15h-50z" id="path983" stroke-width="1.5196" transform="matrix(.62245 0 0 .79988 328.64 67.379)"/>
   <path d="m245 280-5 15h60l-5-15h-50z" id="path984" stroke-width="2.0241" transform="matrix(.40229 0 0 .79988 388.1 67.379)"/>
   <path d="m245 280-5 15h60l-5-15h-50z" id="path636" stroke-width="1.0977" transform="matrix(1.2992 0 0 .79988 21.26 67.378)"/>
   <rect height="11.998" id="rect976" stroke-width=".94885pt" width="318.9" x="212.6" y="239.58"/>
   <g id="g1527">
  <rect height="50.792" id="rect1001" stroke-width=".89340pt" transform="translate(0 354.33)" width="62.5" x="462.79" y="-113.87"/>
  <rect height="26.986" id="rect637" stroke-width=".80466" transform="translate(0 354.33)" width="6.25" x="507.5" y="-90.068"/>
  <rect height="26.986" id="rect639" stroke-width=".80467" transform="translate(0 354.33)" width="6.2501" x="480" y="-90.068"/>
   </g>
   <g id="g1517">
  <path d="m245 280-5 15h60l-5-15h-50z" id="path637" stroke-width="1.5543" transform="matrix(.65261 0 0 .79988 195.63 67.378)"/>
  <path d="m245 280-5 15h60l-5-15h-50z" id="path638" stroke-width="1.9557" transform="matrix(.40931 0 0 .79988 261.53 67.378)"/>
  <rect height="50.992" id="rect1003" stroke-width=".91886pt" transform="translate(0 354.33)" width="65.854" x="338.8" y="-113.98"/>
  <rect height="26.986" id="rect683" stroke-width="1.0398" transform="translate(0 354.33)" width="6.2498" x="391.27" y="-90.072"/>
  <rect height="26.986" id="rect686" stroke-width="1.0402" transform="translate(0 354.33)" width="6.2543" x="347.78" y="-90.075"/>
  <rect height="63.32" id="rect687" stroke-width=".71252pt" transform="translate(0 354.33)" width="31.89" x="356.1" y="-126.32"/>
  <rect height="26.986" id="rect684" stroke-width="1.0398" transform="translate(0 354.33)" width="6.2498" x="380.02" y="-90.074"/>
  <rect height="26.986" id="rect685" stroke-width="1.0402" transform="translate(0 354.33)" width="6.2543" x="359.03" y="-90.073"/>
  <path d="m358.18 217.13 13.471 22.98 14.264-22.98h-27.735z" id="path759" stroke-width="1pt" transform="matrix(1 0 0 .84654 0 54.377)"/>
   </g>
   <rect height="62.99" id="rect1033" stroke-width="1.1785" transform="translate(0 354.33)" width="17.717" x="487.59" y="-113.98"/>
   <rect height="62.99" id="rect1034" stroke-width="1.1779" transform="translate(0 354.33)" width="11.799" x="490.54" y="-113.98"/>
   <g id="g1508">
  <path d="m245 280-5 15h60l-5-15h-50z" id="path635" stroke-width="1.1225" transform="matrix(1.236 0 0 .79988 -84.448 67.379)"/>
  <path d="m245 280-5 15h60l-5-15h-50z" id="path634" stroke-width="1.6368" transform="matrix(.58110 0 0 .79988 90.856 67.379)"/>
  <path d="m245 280-5 15h60l-5-15h-50z" id="path633" stroke-width="2.0493" transform="matrix(.37077 0 0 .79988 147.56 67.379)"/>
  <rect height="50.992" id="rect1000" stroke-width=".89162pt" transform="translate(0 354.33)" width="62.008" x="217.91" y="-113.98"/>
  <rect height="26.986" id="rect635" stroke-width=".80467" transform="translate(0 354.33)" width="6.2499" x="230" y="-90.066"/>
  <rect height="26.986" id="rect638" stroke-width=".80467" transform="translate(0 354.33)" width="6.25" x="258.75" y="-90.065"/>
  <rect height="62.99" id="rect986" stroke-width="1.1785" transform="translate(0 354.33)" width="17.717" x="239.17" y="-113.98"/>
  <rect height="62.99" id="rect987" stroke-width="1.1779" transform="translate(0 354.33)" width="11.799" x="242.11" y="-113.98"/>
   </g>
   <rect height="11.998" id="rect726" stroke-width=".95933pt" width="325.98" x="209.06" y="228.35"/>
   <g id="g598" transform="matrix(1 0 0 .84654 0 54.377)">
  <g id="g557" transform="matrix(1.0466 0 0 1.0413 -36.796 -6.024)">
   <rect height="17.5" id="rect551" stroke-width="1pt" width="406.25" x="187.5" y="328.56"/>
   <rect height="17.5" id="rect556" stroke-width=".89786pt" width="327.5" x="226.25" y="284.81"/>
   <rect height="17.5" id="rect555" stroke-width=".91146pt" width="337.5" x="221.25" y="288.56"/>
   <rect height="17.5" id="rect552" stroke-width="1pt" width="406.25" x="187.5" y="328.56"/>
   <rect height="17.5" id="rect554" stroke-width=".93644pt" width="356.25" x="212.5" y="298.56"/>
   <rect height="17.5" id="rect553" stroke-width=".96874pt" width="381.25" x="200" y="311.06"/>
  </g>
  <g id="g615" transform="matrix(.94488 0 0 1.0205 -32.48 1.1828)">
   <rect height="62.5" id="rect613" stroke-width="1.0297pt" width="18.75" x="287.5" y="283.56"/>
   <rect height="62.5" id="rect614" stroke-width=".84077pt" width="12.5" x="290.62" y="283.56"/>
  </g>
  <g id="g621" transform="matrix(.94488 0 0 1.0205 215.55 1.1831)">
   <rect height="62.5" id="rect622" stroke-width="1.0297pt" width="18.75" x="287.5" y="283.56"/>
   <rect height="62.5" id="rect623" stroke-width=".84077pt" width="12.5" x="290.62" y="283.56"/>
  </g>
  <rect height="0" id="rect993" stroke-width="1.1959" width="60.029" x="290.25" y="344.61"/>
  <rect height="0" id="rect995" stroke-width="1.1959" width="60.029" x="290.25" y="344.61"/>
  <rect height="0" id="rect996" stroke-width="1.1959" width="60.029" x="112.96" y="266.91"/>
  <rect height="0" id="rect997" stroke-width="1.1959" width="60.029" x="32.825" y="233.97"/>
   </g>
   <rect height="113.98" id="rect626" stroke-width="1.2011" width="14.239" x="365.5" y="240.35"/>
   <g id="g1531">
  <path d="m217.92 220.3 0.184-36.915s3.362 7.236 29.512 8.821c24.749-0.937 28.848-5.362 29.969-9.284l-1.025 37.515-58.64-0.137z" id="path801" stroke-width="1pt"
        transform="matrix(.94365 0 0 .84654 261.19 54.377)"/>
  <g id="g892" transform="translate(246.55 2.2413)">
   <path d="m330.92 208.56-18.42-20.45c6.141-5.303 17.543 3.789 17.543 3.789s6.14-23.485 32.457-33.334c26.316 9.849 32.456 33.334 32.456 33.334s11.403-9.092 17.544-3.789l-18.422 20.455h-63.157z"
         id="path893"
         stroke-width="3.5278" transform="matrix(.41468 0 0 .29996 99.014 139.48)"/>
   <path d="m330.92 208.56-18.42-20.45c6.141-5.303 17.543 3.789 17.543 3.789s6.14-23.485 32.457-33.334c26.316 9.849 32.456 33.334 32.456 33.334s11.403-9.092 17.544-3.789l-18.422 20.455h-63.157z"
         id="path894"
         stroke-width="2.615" transform="matrix(.53908 0 0 .41994 53.919 130.35)"/>
  </g>
  <g id="g727" transform="matrix(1.0205 0 0 1.1198 221.61 77.956)">
   <path d="m0 280.52c0.79243 0 30.112 52.301 0 53.093-30.112 0.793 0-51.508 0-53.093z" id="path728" stroke-width="3.3833" transform="matrix(.38660 0 0 .35309 268.92 -29.035)"/>
   <path d="m330.92 208.56-18.42-20.45c6.141-5.303 17.543 3.789 17.543 3.789s6.14-23.485 32.457-33.334c26.316 9.849 32.456 33.334 32.456 33.334s11.403-9.092 17.544-3.789l-18.422 20.455h-63.157z"
         id="path729"
         stroke-width="5.9629" transform="matrix(.3125 0 0 .14062 155.67 64.124)"/>
   <path d="m330.92 208.56l-0.878-16.666s6.14-23.485 32.457-33.334c26.316 9.849 32.456 33.334 32.456 33.334l-0.878 16.666h-63.157z" id="path730" stroke-width="8.3211"
         transform="matrix(.16047 0 0 .14062 210.78 66.467)"/>
   <path d="m330.92 208.56l-0.878-16.666s6.14-23.485 32.457-33.334c26.316 9.849 32.456 33.334 32.456 33.334l-0.878 16.666h-63.157z" id="path731" stroke-width="5.0956"
         transform="matrix(.32094 0 0 .1875 152.61 63.722)"/>
   <path d="m330.92 208.56l-0.878-16.666s6.14-23.485 32.457-33.334c26.316 9.849 32.456 33.334 32.456 33.334l-0.878 16.666h-63.157z" id="path732" stroke-width="5.0956"
         transform="matrix(.32094 0 0 .1875 152.61 68.41)"/>
   <path d="m330.92 208.56-18.42-20.45c6.141-5.303 17.543 3.789 17.543 3.789s6.14-23.485 32.457-33.334c26.316 9.849 32.456 33.334 32.456 33.334s11.403-9.092 17.544-3.789l-18.422 20.455h-63.157z"
         id="path733"
         stroke-width="3.6515" transform="matrix(.3125 0 0 .375 155.67 43.367)"/>
   <path d="m330.92 208.56-18.42-20.45c6.141-5.303 17.543 3.789 17.543 3.789s6.14-23.485 32.457-33.334c26.316 9.849 32.456 33.334 32.456 33.334s11.403-9.092 17.544-3.789l-18.422 20.455h-63.157z"
         id="path734"
         stroke-width="3.6515" transform="matrix(.3125 0 0 .375 155.67 52.742)"/>
   <path d="m330.92 208.56l-0.878-16.666s6.14-23.485 32.457-33.334c26.316 9.849 32.456 33.334 32.456 33.334l-0.878 16.666h-63.157z" id="path735" stroke-width="3.2227"
         transform="matrix(.32094 0 0 .46875 152.61 47.251)"/>
   <path d="m330.92 208.56-18.42-20.45c6.141-5.303 17.543 3.789 17.543 3.789s6.14-23.485 32.457-33.334c26.316 9.849 32.456 33.334 32.456 33.334s11.403-9.092 17.544-3.789l-18.422 20.455h-63.157z"
         id="path736"
         stroke-width="4.2164" transform="matrix(.3125 0 0 .28125 155.67 86.357)"/>
  </g>
   </g>
   <g id="g1546">
  <g id="g889" transform="translate(-1.1207 -.000015259)">
   <path d="m330.92 208.56-18.42-20.45c6.141-5.303 17.543 3.789 17.543 3.789s6.14-23.485 32.457-33.334c26.316 9.849 32.456 33.334 32.456 33.334s11.403-9.092 17.544-3.789l-18.422 20.455h-63.157z"
         id="path874"
         stroke-width="3.5278" transform="matrix(.41468 0 0 .29996 99.014 139.48)"/>
   <path d="m330.92 208.56-18.42-20.45c6.141-5.303 17.543 3.789 17.543 3.789s6.14-23.485 32.457-33.334c26.316 9.849 32.456 33.334 32.456 33.334s11.403-9.092 17.544-3.789l-18.422 20.455h-63.157z"
         id="path879"
         stroke-width="2.615" transform="matrix(.53908 0 0 .41994 53.919 130.35)"/>
  </g>
  <path d="m217.92 220.3 0.184-36.915s3.362 7.236 29.512 8.821c24.749-0.937 28.848-5.362 29.969-9.284l-1.025 37.515-58.64-0.137z" id="path800" stroke-width="1pt"
        transform="matrix(.94365 0 0 .84654 15.641 54.377)"/>
  <g id="g603" transform="matrix(1.0205 0 0 1.1198 -26.424 77.956)">
   <path d="m0 280.52c0.79243 0 30.112 52.301 0 53.093-30.112 0.793 0-51.508 0-53.093z" id="path583" stroke-width="3.3833" transform="matrix(.38660 0 0 .35309 268.92 -29.035)"/>
   <path d="m330.92 208.56-18.42-20.45c6.141-5.303 17.543 3.789 17.543 3.789s6.14-23.485 32.457-33.334c26.316 9.849 32.456 33.334 32.456 33.334s11.403-9.092 17.544-3.789l-18.422 20.455h-63.157z"
         id="path582"
         stroke-width="5.9629" transform="matrix(.3125 0 0 .14062 155.67 64.124)"/>
   <path d="m330.92 208.56l-0.878-16.666s6.14-23.485 32.457-33.334c26.316 9.849 32.456 33.334 32.456 33.334l-0.878 16.666h-63.157z" id="path581" stroke-width="8.3211"
         transform="matrix(.16047 0 0 .14062 210.78 66.467)"/>
   <path d="m330.92 208.56l-0.878-16.666s6.14-23.485 32.457-33.334c26.316 9.849 32.456 33.334 32.456 33.334l-0.878 16.666h-63.157z" id="path580" stroke-width="5.0956"
         transform="matrix(.32094 0 0 .1875 152.61 63.722)"/>
   <path d="m330.92 208.56l-0.878-16.666s6.14-23.485 32.457-33.334c26.316 9.849 32.456 33.334 32.456 33.334l-0.878 16.666h-63.157z" id="path579" stroke-width="5.0956"
         transform="matrix(.32094 0 0 .1875 152.61 68.41)"/>
   <path d="m330.92 208.56-18.42-20.45c6.141-5.303 17.543 3.789 17.543 3.789s6.14-23.485 32.457-33.334c26.316 9.849 32.456 33.334 32.456 33.334s11.403-9.092 17.544-3.789l-18.422 20.455h-63.157z"
         id="path576"
         stroke-width="3.6515" transform="matrix(.3125 0 0 .375 155.67 43.367)"/>
   <path d="m330.92 208.56-18.42-20.45c6.141-5.303 17.543 3.789 17.543 3.789s6.14-23.485 32.457-33.334c26.316 9.849 32.456 33.334 32.456 33.334s11.403-9.092 17.544-3.789l-18.422 20.455h-63.157z"
         id="path575"
         stroke-width="3.6515" transform="matrix(.3125 0 0 .375 155.67 52.742)"/>
   <path d="m330.92 208.56l-0.878-16.666s6.14-23.485 32.457-33.334c26.316 9.849 32.456 33.334 32.456 33.334l-0.878 16.666h-63.157z" id="path578" stroke-width="3.2227"
         transform="matrix(.32094 0 0 .46875 152.61 47.251)"/>
   <path d="m330.92 208.56-18.42-20.45c6.141-5.303 17.543 3.789 17.543 3.789s6.14-23.485 32.457-33.334c26.316 9.849 32.456 33.334 32.456 33.334s11.403-9.092 17.544-3.789l-18.422 20.455h-63.157z"
         id="path574"
         stroke-width="4.2164" transform="matrix(.3125 0 0 .28125 155.67 86.357)"/>
  </g>
   </g>
   <g id="g1561">
  <rect height="12.898" id="rect901" ry="6.4488" stroke-width="1.2256" width="85.039" x="329.53" y="226.28"/>
  <path d="m353.24-212.6 1.093-56.693s-3.28 13.906-13.123 13.906h-150.92c-9.843 0-13.124-13.906-13.124-13.906l1.093 56.693h174.98z" id="path900" stroke-width="1.5789"
        transform="matrix(0.5 0 0 0.75 239.17 393.31)"/>
  <g id="g860" transform="translate(-.000043591 -7.7902)">
   <path d="m510.49 70.219 0.41-25.609s23.557-2.9984 20.288-9.3319c-3.27-6.3334-31.604 7.9858-31.604 7.9858h-113.34s-28.335-14.319-31.604-7.9858c-3.269 6.3335 20.288 9.3319 20.288 9.3319l0.408 25.609h135.15z"
         id="path807"
         stroke-width="2.3995" transform="matrix(0.4 0 0 .57434 194.88 182.02)"/>
   <path d="m510.49 70.219 0.41-25.609s23.557-2.9984 20.288-9.3319c-3.27-6.3334-31.604 7.9858-31.604 7.9858h-113.34s-28.335-14.319-31.604-7.9858c-3.269 6.3335 20.288 9.3319 20.288 9.3319l0.408 25.609h135.15z"
         id="path806"
         stroke-width="2.1904" transform="matrix(0.48 0 0 .57434 159.45 194.02)"/>
   <path d="m510.49 70.219 0.41-25.609s23.557-2.9985 20.288-9.3319c-3.27-6.333-27.29-18.36-61.81-31.08-24.29-5.9047 31.26-26.346-21.07-27.709-48.02 0.757-5.42 23.318-21.07 28.618-38.84 11.81-69.33 23.838-72.6 30.171-3.27 6.334 20.29 9.332 20.29 9.332l0.408 25.609h135.15z"
         id="path814"
         stroke-width="6.2465" transform="matrix(.12985 0 0 .26106 314.17 141.87)"/>
   <path d="m510.49 70.219 0.41-25.609s23.557-2.9984 20.288-9.3319c-3.27-6.3334-31.604 7.9858-31.604 7.9858h-113.34s-28.335-14.319-31.604-7.9858c-3.269 6.3335 20.288 9.3319 20.288 9.3319l0.408 25.609h135.15z"
         id="path808"
         stroke-width="3.152" transform="matrix(.28332 0 0 .46992 246.55 164.54)"/>
   <path d="m510.49 70.219 0.41-25.609s23.557-2.9984 20.288-9.3319c-3.27-6.3334-31.604 7.9858-31.604 7.9858h-113.34s-28.335-14.319-31.604-7.9858c-3.269 6.3335 20.288 9.3319 20.288 9.3319l0.408 25.609h135.15z"
         id="path809"
         stroke-width="2.8773" transform="matrix(.34 0 0 .46992 221.46 174.36)"/>
   <path d="m510.49 70.219 0.41-25.609s23.557-2.9984 20.288-9.3319c-3.27-6.3334-31.604 7.9858-31.604 7.9858h-113.34s-28.335-14.319-31.604-7.9858c-3.269 6.3335 20.288 9.3319 20.288 9.3319l0.408 25.609h135.15z"
         id="path810"
         stroke-width="4.7552" transform="matrix(.18333 0 0 .31908 290.85 157.28)"/>
   <path d="m510.49 70.219 0.41-25.609s23.557-2.9984 20.288-9.3319c-3.27-6.3334-31.604 7.9858-31.604 7.9858h-113.34s-28.335-14.319-31.604-7.9858c-3.269 6.3335 20.288 9.3319 20.288 9.3319l0.408 25.609h135.15z"
         id="path811"
         stroke-width="4.3408" transform="matrix(.22 0 0 .31908 274.61 163.95)"/>
   <path d="m510.49 70.219 0.41-25.609s23.557-2.9984 20.288-9.3319c-3.27-6.3334-31.604 7.9858-31.604 7.9858h-113.34s-28.335-14.319-31.604-7.9858c-3.269 6.3335 20.288 9.3319 20.288 9.3319l0.408 25.609h135.15z"
         id="path812"
         stroke-width="6.2465" transform="matrix(.12985 0 0 .26106 314.53 147.57)"/>
   <path d="m510.49 70.219 0.41-25.609s23.557-2.9984 20.288-9.3319c-3.27-6.3334-31.604 7.9858-31.604 7.9858h-113.34s-28.335-14.319-31.604-7.9858c-3.269 6.3335 20.288 9.3319 20.288 9.3319l0.408 25.609h135.15z"
         id="path813"
         stroke-width="5.7021" transform="matrix(.15583 0 0 .26106 303.03 153.03)"/>
  </g>
  <g id="g789" transform="matrix(1 0 0 .84654 -.000038490 54.377)">
   <path d="m330.92 208.56-18.42-20.45c6.141-5.303 17.543 3.789 17.543 3.789s6.14-23.485 32.457-33.334c26.316 9.849 32.456 33.334 32.456 33.334s11.403-9.092 17.544-3.789l-18.422 20.455h-63.157z"
         id="path767"
         stroke-width="5.4435" transform="matrix(.17717 0 0 .21260 307.82 85.004)"/>
   <path d="m330.92 208.56-18.42-20.45c6.141-5.303 17.543 3.789 17.543 3.789s6.14-23.485 32.457-33.334c26.316 9.849 32.456 33.334 32.456 33.334s11.403-9.092 17.544-3.789l-18.422 20.455h-63.157z"
         id="path766"
         stroke-width="5.4435" transform="matrix(.24803 0 0 .21260 282.14 92.09)"/>
   <path d="m330.92 208.56-18.42-20.45c6.141-5.303 17.543 3.789 17.543 3.789s6.14-23.485 32.457-33.334c26.316 9.849 32.456 33.334 32.456 33.334s11.403-9.092 17.544-3.789l-18.422 20.455h-63.157z"
         id="path765"
         stroke-width="4.4097" transform="matrix(.28346 0 0 .28346 269.29 89.705)"/>
   <path d="m330.92 208.56-18.42-20.45c6.141-5.303 17.543 3.789 17.543 3.789s6.14-23.485 32.457-33.334c26.316 9.849 32.456 33.334 32.456 33.334s11.403-9.092 17.544-3.789l-18.422 20.455h-63.157z"
         id="path764"
         stroke-width="3.5278" transform="matrix(.35433 0 0 .35433 243.6 90.155)"/>
   <path d="m358.18 217.13 13.471 22.98 14.264-22.98h-27.735z" id="path762" stroke-width="1.4582" transform="matrix(.92308 0 0 .79602 28.619 3.7524)"/>
   <path d="m330.92 208.56-18.42-20.45c6.141-5.303 17.543 3.789 17.543 3.789s6.14-23.485 32.457-33.334c26.316 9.849 32.456 33.334 32.456 33.334s11.403-9.092 17.544-3.789l-18.422 20.455h-63.157z"
         id="path763"
         stroke-width="3.0506" transform="matrix(.42520 0 0 .39487 217.91 96.262)"/>
   <path d="m358.18 217.13 13.471 22.98 14.264-22.98h-27.735z" id="path760" stroke-width="1.25" transform="translate(-.00012022 -20.422)"/>
   <path d="m330.92 208.56-18.42-20.45c6.141-5.303 17.543 3.789 17.543 3.789s6.14-23.485 32.457-33.334c26.316 9.849 32.456 33.334 32.456 33.334s11.403-9.092 17.544-3.789l-18.422 20.455h-63.157z"
         id="path761"
         stroke-width="2.615" transform="matrix(.46063 0 0 .49606 205.07 95.815)"/>
   <path d="m330.92 208.56-18.42-20.45c6.141-5.303 17.543 3.789 17.543 3.789s6.14-23.485 32.457-33.334c26.316 9.849 32.456 33.334 32.456 33.334s11.403-9.092 17.544-3.789l-18.422 20.455h-63.157z"
         id="path746"
         stroke-width="2.615" transform="matrix(.46063 0 0 .49606 205.07 116.22)"/>
  </g>
   </g>
   <g id="g1584" stroke-width="1.0398">
  <rect height="26.986" id="rect644" transform="translate(0 354.33)" width="6.2498" x="285.34" y="-90.07"/>
  <rect height="26.986" id="rect649" transform="translate(0 354.33)" width="6.2498" x="306.59" y="-90.072"/>
  <rect height="26.986" id="rect650" transform="translate(0 354.33)" width="6.2498" x="296.59" y="-90.073"/>
  <rect height="26.986" id="rect652" transform="translate(0 354.33)" width="6.2498" x="410.14" y="-90.071"/>
  <rect height="26.986" id="rect653" transform="translate(0 354.33)" width="6.2498" x="452.64" y="-90.073"/>
  <rect height="26.986" id="rect654" transform="translate(0 354.33)" width="6.2498" x="431.39" y="-90.074"/>
  <rect height="26.986" id="rect655" transform="translate(0 354.33)" width="6.2498" x="421.39" y="-90.075"/>
  <rect height="26.986" id="rect656" transform="translate(0 354.33)" width="6.2498" x="441.39" y="-90.075"/>
  <rect height="26.986" id="rect648" transform="translate(0 354.33)" width="6.2498" x="327.84" y="-90.071"/>
  <rect height="26.986" id="rect651" transform="translate(0 354.33)" width="6.2498" x="316.59" y="-90.073"/>
   </g>
  </g>
 </g>
</svg>
