<?xml version="1.0" encoding="UTF-8" standalone="no"?>
<svg height="480" id="svg660" version="1.1" width="640" xmlns="http://www.w3.org/2000/svg" xmlns:cc="http://creativecommons.org/ns#" xmlns:dc="http://purl.org/dc/elements/1.1/"
     xmlns:rdf="http://www.w3.org/1999/02/22-rdf-syntax-ns#">
 <metadata id="metadata4850">
  <rdf:RDF>
   <cc:Work rdf:about="">
  <dc:format>image/svg+xml</dc:format>
  <dc:type rdf:resource="http://purl.org/dc/dcmitype/StillImage"/>
   </cc:Work>
  </rdf:RDF>
 </metadata>
 <defs id="defs662">
  <clipPath clipPathUnits="userSpaceOnUse" id="clipPath4687">
   <rect fill-opacity="0.67" height="512" id="rect4689" width="682.67" x="0" y="0"/>
  </clipPath>
 </defs>
 <g clip-path="url(#clipPath4687)" fill-rule="evenodd" id="flag" transform="scale(.9375)">
  <rect fill="#ff0" height="128" id="rect665" stroke-width="1pt" width="768.77" x="0" y="-.0000018630"/>
  <rect fill="#fff" height="128" id="rect668" stroke-width="1pt" width="768.77" x="0" y="128"/>
  <rect fill="#be0027" height="128" id="rect667" stroke-width="1pt" width="768.77" x="0" y="256"/>
  <rect fill="#3b5aa3" height="128" id="rect666" stroke-width="1pt" width="768.77" x="0" y="384"/>
  <path d="m0 0.000019406v512l381.86-255.28-381.86-256.72z" fill="#239e46" id="path664"/>
  <path d="m157.21 141.43c-85.097-4.31-123.87 63.47-123.78 115.87-0.194 61.97 58.529 113.08 112.81 109.99-29.27-13.84-65.008-52.66-65.337-110.25-0.3-52.18 29.497-97.55 76.307-115.61z" fill="#fff"
        id="path673"/>
  <polygon d="m 126.77341,160.21338 -9.75793,-7.62986 -11.8172,3.71287 4.24106,-11.63809 -7.18286,-10.0915 12.37904,0.43712 7.37795,-9.94975 3.40961,11.90825 11.74269,3.94221 -10.27179,6.92258 z"
           fill="#fff"
           id="polygon674" points="126.77 160.21 117.02 152.58 105.2 156.3 109.44 144.66 102.26 134.57 114.64 135 122.01 125.05 125.42 136.96 137.17 140.9 126.89 147.83"
           stroke-width="1pt" transform="matrix(1.23 0 0 1.23 0 .000016587)"/>
  <polygon d="m 126.77341,160.21338 -9.75793,-7.62986 -11.8172,3.71287 4.24106,-11.63809 -7.18286,-10.0915 12.37904,0.43712 7.37795,-9.94975 3.40961,11.90825 11.74269,3.94221 -10.27179,6.92258 z"
           fill="#fff"
           id="polygon675"
           points="126.77 160.21 117.02 152.58 105.2 156.3 109.44 144.66 102.26 134.57 114.64 135 122.01 125.05 125.42 136.96 137.17 140.9 126.89 147.83" stroke-width="1pt" transform="matrix(1.23 0 0 1.23 -.25522 52.063)"/>
  <polygon d="m 126.77341,160.21338 -9.75793,-7.62986 -11.8172,3.71287 4.24106,-11.63809 -7.18286,-10.0915 12.37904,0.43712 7.37795,-9.94975 3.40961,11.90825 11.74269,3.94221 -10.27179,6.92258 z"
           fill="#fff"
           id="polygon676"
           points="126.77 160.21 117.02 152.58 105.2 156.3 109.44 144.66 102.26 134.57 114.64 135 122.01 125.05 125.42 136.96 137.17 140.9 126.89 147.83" stroke-width="1pt" transform="matrix(1.23 0 0 1.23 -.000011822 104.64)"/>
  <polygon d="m 126.77341,160.21338 -9.75793,-7.62986 -11.8172,3.71287 4.24106,-11.63809 -7.18286,-10.0915 12.37904,0.43712 7.37795,-9.94975 3.40961,11.90825 11.74269,3.94221 -10.27179,6.92258 z"
           fill="#fff"
           id="polygon677"
           points="126.77 160.21 117.02 152.58 105.2 156.3 109.44 144.66 102.26 134.57 114.64 135 122.01 125.05 125.42 136.96 137.17 140.9 126.89 147.83" stroke-width="1pt" transform="matrix(1.23 0 0 1.23 -.25522 157.72)"/>
 </g>
</svg>
