<?xml version="1.0" encoding="UTF-8" standalone="no"?>
<svg height="480" id="svg378" version="1" width="640" x="0" xmlns="http://www.w3.org/2000/svg" xmlns:cc="http://creativecommons.org/ns#" xmlns:dc="http://purl.org/dc/elements/1.1/" xmlns:rdf="http://www.w3.org/1999/02/22-rdf-syntax-ns#"
     y="0">
 <metadata id="metadata4863">
  <rdf:RDF>
   <cc:Work rdf:about="">
  <dc:format>image/svg+xml</dc:format>
  <dc:type rdf:resource="http://purl.org/dc/dcmitype/StillImage"/>
   </cc:Work>
  </rdf:RDF>
 </metadata>
 <defs id="defs380">
  <clipPath clipPathUnits="userSpaceOnUse" id="clipPath4591">
   <rect fill-opacity="0.67" height="512" id="rect4593" width="682.67" x="-80.109" y=".0000041560"/>
  </clipPath>
 </defs>
 <g clip-path="url(#clipPath4591)" fill-rule="evenodd" id="flag" transform="matrix(.93750 0 0 .93750 75.102 -.0000038963)">
  <rect fill="#ffe900" height="511.29" id="rect628" width="737.65" x="-107.85" y=".23857"/>
  <path d="m-108.24 0.23864 0.86 368.58 573.98-368.82-574.84 0.23864z" fill="#35a100" id="path623"/>
  <path d="m630.69 511.53-1.3468-383.25-578.98 383.54 580.33-0.2831z" fill="#c70000" id="path624"/>
  <path d="m-107.87 396.61 0.49 115.39 125.25-0.16 611.76-410.14-0.69-100.32-123.76-1.1414-613.05 396.37z" id="path625"/>
  <polygon fill="#fff" id="polygon136"
           points="511.95 324.28 533.78 256.9 555.61 324.28 626.44 324.23 569.1 365.81 591.04 433.16 591.04 433.16 533.77 391.48 476.5 433.15 498.45 365.81 441.12 324.21" transform="matrix(.53692 -.34745 .32106 .51439 1.465 167.69)"/>
  <polygon fill="#fff" id="polygon638"
           points="511.95 324.28 533.78 256.9 555.61 324.28 626.44 324.23 569.1 365.81 591.04 433.16 591.04 433.16 533.77 391.48 476.5 433.15 498.45 365.81 441.12 324.21" transform="matrix(.53692 -.34745 .32106 .51439 -273.78 346.6)"/>
 </g>
</svg>
