<?xml version="1.0" encoding="UTF-8" standalone="no"?>
<svg height="480" id="svg378" version="1" width="640" x="0" xmlns="http://www.w3.org/2000/svg" xmlns:cc="http://creativecommons.org/ns#" xmlns:dc="http://purl.org/dc/elements/1.1/" xmlns:rdf="http://www.w3.org/1999/02/22-rdf-syntax-ns#"
     y="0">
 <metadata id="metadata11">
  <rdf:RDF>
   <cc:Work rdf:about="">
  <dc:format>image/svg+xml</dc:format>
  <dc:type rdf:resource="http://purl.org/dc/dcmitype/StillImage"/>
   </cc:Work>
  </rdf:RDF>
 </metadata>
 <defs id="defs380">
  <clipPath clipPathUnits="userSpaceOnUse" id="clipPath4479">
   <rect fill-opacity="0.67" height="511.9" id="rect4481" width="682.53" x="5.0774" y=".10048"/>
  </clipPath>
 </defs>
 <g clip-path="url(#clipPath4479)" fill-rule="evenodd" id="flag" transform="matrix(.93768 0 0 .93768 -4.761 -.094216)">
  <rect fill="#fff" height="510.95" id="rect149" stroke="#000" stroke-width=".76014pt" transform="scale(-1)" width="851.86" x="-775.94" y="-511.52"/>
  <rect fill="#3e5698" height="92.457" id="rect148" stroke-width="1pt" transform="scale(-1,1)" width="851.86" x="-775.94" y="419.07"/>
  <rect fill="#c60000" height="283.21" id="rect605" stroke-width="1pt" transform="scale(-1)" width="851.86" x="-775.94" y="-397.65"/>
  <rect fill="#3e5698" height="92.457" id="rect606" stroke-width="1pt" transform="scale(-1,1)" width="851.86" x="-775.94" y=".57557"/>
  <path d="m495.86 1148c0 90.46-73.332 163.79-163.79 163.79-90.46 0-163.79-73.332-163.79-163.79 0-90.46 73.332-163.79 163.79-163.79 90.46 0 163.79 73.332 163.79 163.79z" fill="#fff"
        id="path607" transform="matrix(.72421 0 0 .70142 -30.589 -549.16)"/>
  <polygon fill="#c40000" id="polygon136"
           points="498.45 365.81 441.12 324.21 511.95 324.28 533.78 256.9 555.61 324.28 626.44 324.23 569.1 365.81 591.04 433.16 591.04 433.16 533.77 391.48 476.5 433.15" transform="matrix(1.0032 -.0050477 -.010923 .98334 -320.22 -86.633)"/>
 </g>
</svg>
