<?xml version="1.0" encoding="UTF-8" standalone="no"?>
<svg height="480" id="svg378" version="1" width="640" x="0" xmlns="http://www.w3.org/2000/svg" xmlns:cc="http://creativecommons.org/ns#" xmlns:dc="http://purl.org/dc/elements/1.1/" xmlns:rdf="http://www.w3.org/1999/02/22-rdf-syntax-ns#"
     y="0">
 <metadata id="metadata3014">
  <rdf:RDF>
   <cc:Work rdf:about="">
  <dc:format>image/svg+xml</dc:format>
  <dc:type rdf:resource="http://purl.org/dc/dcmitype/StillImage"/>
   </cc:Work>
  </rdf:RDF>
 </metadata>
 <defs id="defs380">
  <clipPath clipPathUnits="userSpaceOnUse" id="clipPath4409">
   <rect fill-opacity="0.67" height="512" id="rect4411" width="682.67" x="-95.808" y="-.43991"/>
  </clipPath>
 </defs>
 <g clip-path="url(#clipPath4409)" fill-rule="evenodd" id="flag" transform="matrix(.9375 0 0 .9375 89.82 .41242)">
  <rect fill="#fff" height="512" id="rect149" transform="scale(-1)" width="730.17" x="-610.61" y="-511.56"/>
  <path d="m495.86 1148c0 90.46-73.332 163.79-163.79 163.79-90.46 0-163.79-73.332-163.79-163.79 0-90.46 73.332-163.79 163.79-163.79 90.46 0 163.79 73.332 163.79 163.79z" fill="#fff"
        id="path607" transform="matrix(.68690 0 0 .68690 -88.735 -532.54)"/>
  <path d="m733.7 381.73c0 125.78-101.96 227.74-227.74 227.74s-227.74-101.96-227.74-227.74 101.96-227.74 227.74-227.74 227.74 101.96 227.74 227.74z" fill="#c70000"
        id="path635" transform="matrix(.63784 0 0 .64461 -74.972 16.483)"/>
  <rect height="26.201" id="rect636" stroke-width="1pt" transform="rotate(-49.156)" width="127.92" x="-127.97" y="45.309"/>
  <rect height="26.201" id="rect637" stroke-width="1pt" transform="rotate(-49.156)" width="127.92" x="-127.97" y="81.527"/>
  <rect height="26.201" id="rect638" stroke-width="1pt" transform="rotate(-49.156)" width="127.92" x="-127.97" y="45.309"/>
  <rect height="26.201" id="rect639" stroke-width="1pt" transform="rotate(-49.156)" width="127.92" x="-127.97" y="45.309"/>
  <rect height="26.201" id="rect640" stroke-width="1pt" transform="rotate(-49.156)" width="127.92" x="-127.97" y="118.52"/>
  <rect height="26.201" id="rect641" stroke-width="1pt" transform="rotate(-49.156)" width="127.92" x="-127.97" y="45.309"/>
  <rect height="26.201" id="rect643" stroke-width="1pt" transform="rotate(-49.156)" width="127.92" x="-127.97" y="45.309"/>
  <rect height="26.201" id="rect644" stroke-width="1pt" transform="matrix(.64886 .76090 -.76090 .64886 0 0)" width="127.92" x="320.65" y="-330.34"/>
  <rect height="26.201" id="rect645" stroke-width="1pt" transform="matrix(.64886 .76090 -.76090 .64886 0 0)" width="127.92" x="320.65" y="-257.13"/>
  <path d="m417.55 133.19 78.602-67.814 14.641 16.953-83.996 75.519-9.2471-24.659z" fill="#fff" id="path649"/>
  <rect height="25.644" id="rect646" stroke-width="1pt" transform="matrix(-.64282 .76602 -.76881 -.63948 0 0)" width="125.1" x="-42.832" y="-633.05"/>
  <rect height="26.201" id="rect642" stroke-width="1pt" transform="matrix(.64886 .76090 -.76090 .64886 0 0)" width="127.92" x="320.65" y="-294.12"/>
  <rect height="25.644" id="rect647" stroke-width="1pt" transform="matrix(-.64282 .76602 -.76881 -.63948 0 0)" width="125.1" x="-42.832" y="-668.49"/>
  <rect height="25.644" id="rect648" stroke-width="1pt" transform="matrix(-.64282 .76602 -.76881 -.63948 0 0)" width="125.1" x="-42.832" y="-596.84"/>
  <path d="m104.6 236.68c4.5919 36.974 11.297 78.175 68.199 82.455 21.328 1.2776 62.817-5.0735 77.061-63.19 18.688-55.829 74.975-71.88 113.28-41.613 21.718 14.166 27.727 36.666 29.283 53.557-1.7386 54.243-32.874 101.2-72.823 122.14-45.93 27.3-109.56 27.87-165.3-13.49-25.12-23.57-60.219-67.02-49.7-139.86z"
        fill="#3d5897"
        id="path653"/>
  <path d="m435.91 370.59 78.734 67.661-14.591 16.997-87.156-71.851 23.013-12.807z" fill="#fff" id="path654"/>
  <rect height="26.201" id="rect658" stroke-width="1pt" transform="matrix(.64886 .76090 -.76090 .64886 0 0)" width="127.92" x="270.57" y="233.21"/>
  <path d="m-16.188 437.25 78.602-67.814 14.641 16.953-83.996 75.519-9.2471-24.659z" fill="#fff" id="path657" stroke-width="1pt"/>
  <rect height="26.201" id="rect655" stroke-width="1pt" transform="matrix(.64886 .76090 -.76090 .64886 0 0)" width="127.92" x="270.57" y="196.99"/>
  <rect height="26.201" id="rect656" stroke-width="1pt" transform="matrix(.64886 .76090 -.76090 .64886 0 0)" width="127.92" x="270.57" y="270.2"/>
 </g>
</svg>
