<?xml version="1.0" encoding="UTF-8" standalone="no"?>
<svg height="480" id="svg1646" version="1.1" width="640" xmlns="http://www.w3.org/2000/svg" xmlns:cc="http://creativecommons.org/ns#" xmlns:dc="http://purl.org/dc/elements/1.1/"
     xmlns:rdf="http://www.w3.org/1999/02/22-rdf-syntax-ns#">
 <metadata id="metadata3564">
  <rdf:RDF>
   <cc:Work rdf:about="">
  <dc:format>image/svg+xml</dc:format>
  <dc:type rdf:resource="http://purl.org/dc/dcmitype/StillImage"/>
   </cc:Work>
  </rdf:RDF>
 </metadata>
 <defs id="defs1648">
  <clipPath clipPathUnits="userSpaceOnUse" id="clipPath3037">
   <rect fill-opacity="0.67" height="480" id="rect3039" width="640" x="0" y="0"/>
  </clipPath>
 </defs>
 <g clip-path="url(#clipPath3037)" id="flag">
  <rect fill="#fff" height="480" id="rect2996" width="640" x="0" y="0"/>
  <rect fill="#fff" fill-rule="evenodd" height="480" id="rect555" stroke-width="1pt" width="477.19" x="92.462" y="1.5939e-7"/>
  <rect fill="#db0000" fill-rule="evenodd" height="221.68" id="rect1649" stroke-width="1pt" width="358" x="323.07" y="3.6546"/>
  <rect fill="#0000ab" fill-rule="evenodd" height="254.66" id="rect1650" stroke-width="1pt" width="319.87" x="3.2267" y="225.33"/>
  <path d="m214.8 177.65-41.959-29.326-41.754 29.614 15.529-48.124-41.677-29.716 51.562-0.4143 15.993-47.978 16.335 47.867 51.562 0.06322-41.463 29.996 15.872 48.017z" fill="#0000ab" fill-rule="evenodd"
        id="path205" stroke-width=".11287"/>
  <path d="m516.85 413.89-42.354-27.744-42.146 28.017 15.675-45.529-42.069-28.114 52.047-0.39198 16.143-45.391 16.489 45.286 52.047 0.0598-41.853 28.379 16.021 45.428z" fill="#d80000"
        fill-rule="evenodd" id="path1660" stroke-width=".11287"/>
 </g>
</svg>
