<?xml version="1.0" encoding="UTF-8" standalone="no"?>
<svg height="480" id="svg378" version="1" width="640" x="0" xmlns="http://www.w3.org/2000/svg" xmlns:cc="http://creativecommons.org/ns#" xmlns:dc="http://purl.org/dc/elements/1.1/" xmlns:rdf="http://www.w3.org/1999/02/22-rdf-syntax-ns#"
     y="0">
 <metadata id="metadata3079">
  <rdf:RDF>
   <cc:Work rdf:about="">
  <dc:format>image/svg+xml</dc:format>
  <dc:type rdf:resource="http://purl.org/dc/dcmitype/StillImage"/>
   </cc:Work>
  </rdf:RDF>
 </metadata>
 <defs id="defs380">
  <clipPath clipPathUnits="userSpaceOnUse" id="clipPath15251">
   <rect fill-opacity="0.67" height="480" id="rect15253" width="640" x="0" y="0"/>
  </clipPath>
 </defs>
 <g clip-path="url(#clipPath15251)" id="flag">
  <g fill-rule="evenodd" id="g15168" transform="matrix(.9375 0 0 .9375 -1.2495 -.0000022609)">
   <rect fill="#fff" height="512" id="rect149" stroke-width="1pt" width="768" x="-20" y=".0000024116"/>
   <rect fill="#df0000" height="256" id="rect148" stroke-width="1pt" width="768" x="-20" y=".0000024116"/>
   <path d="m157.12 42.909c-35.46 8.13-61.807 34.386-69.256 70.081-10.121 48.5 21.466 95.99 70.066 106.12-49.1 14-99.829-14.22-113.7-62.86-13.863-48.64 14.358-99.372 63-113.24 17.075-4.8694 32.795-4.9 49.892-0.10094z"
         fill="#fff"
         id="path141" stroke-width=".52437"/>
   <polygon fill="#fff" id="polygon142"
            points="262.25 522.28 266.19 534.45 266.19 534.45 255.78 527.02 245.42 534.52 249.27 522.33 238.94 514.8 251.72 514.69 255.69 502.53 259.74 514.66 272.53 514.68" stroke-width=".52437"
            transform="matrix(1.3251 0 0 1.3251 -204.33 -574.79)"/>
   <polygon fill="#fff" id="polygon144"
            points="262.25 522.28 266.19 534.45 266.19 534.45 255.78 527.02 245.42 534.52 249.27 522.33 238.94 514.8 251.72 514.69 255.69 502.53 259.74 514.66 272.53 514.68" stroke-width=".52437"
            transform="matrix(1.3251 0 0 1.3251 -185.6 -519.26)"/>
   <polygon fill="#fff" id="polygon145"
            points="262.25 522.28 266.19 534.45 266.19 534.45 255.78 527.02 245.42 534.52 249.27 522.33 238.94 514.8 251.72 514.69 255.69 502.53 259.74 514.66 272.53 514.68" stroke-width=".52437"
            transform="matrix(1.3251 0 0 1.3251 -123.28 -519.66)"/>
   <polygon fill="#fff" id="polygon146"
            points="262.25 522.28 266.19 534.45 266.19 534.45 255.78 527.02 245.42 534.52 249.27 522.33 238.94 514.8 251.72 514.69 255.69 502.53 259.74 514.66 272.53 514.68" stroke-width=".52437"
            transform="matrix(1.3251 0 0 1.3251 -104.69 -574.74)"/>
   <polygon fill="#fff" id="polygon147"
            points="262.25 522.28 266.19 534.45 266.19 534.45 255.78 527.02 245.42 534.52 249.27 522.33 238.94 514.8 251.72 514.69 255.69 502.53 259.74 514.66 272.53 514.68" stroke-width=".52437"
            transform="matrix(1.3251 0 0 1.3251 -154.03 -611.28)"/>
  </g>
 </g>
</svg>
