<?xml version="1.0" encoding="UTF-8" standalone="no"?>
<svg height="480" id="svg1207" version="1.1" width="640" xmlns="http://www.w3.org/2000/svg" xmlns:cc="http://creativecommons.org/ns#" xmlns:dc="http://purl.org/dc/elements/1.1/"
     xmlns:rdf="http://www.w3.org/1999/02/22-rdf-syntax-ns#">
 <metadata id="metadata3328">
  <rdf:RDF>
   <cc:Work rdf:about="">
  <dc:format>image/svg+xml</dc:format>
  <dc:type rdf:resource="http://purl.org/dc/dcmitype/StillImage"/>
   </cc:Work>
  </rdf:RDF>
 </metadata>
 <defs id="defs1209">
  <clipPath clipPathUnits="userSpaceOnUse" id="clipPath8409">
   <rect fill-opacity="0.67" height="512" id="rect8411" width="682.67" x="0" y="-.000016581"/>
  </clipPath>
 </defs>
 <g clip-path="url(#clipPath8409)" fill-rule="evenodd" id="flag" transform="matrix(.93750 0 0 .93750 0 .000015545)">
  <rect fill="#ff0" height="504.3" id="rect3472" stroke-width="1pt" width="1024" x="0" y="-.000013873"/>
  <rect fill="#009d00" height="146.29" id="rect1276" stroke-width="1pt" width="1024" x=".000078442" y="-.0000025191"/>
  <rect fill="#009d00" height="146.29" id="rect3471" stroke-width="1pt" width="1024" x="0" y="365.71"/>
  <path d="m0.7083-0.000016778c1.4166 0 255.29 253.03 255.29 253.03l-256 258.97 0.7083-512z" fill="#f10600" id="path570"/>
  <g id="g1310" stroke-width="1pt" transform="matrix(.78651 0 0 .78651 -154.66 -225.36)">
   <polygon id="polygon136" points="498.45 365.81 441.12 324.21 511.95 324.28 533.78 256.9 555.61 324.28 626.44 324.23 569.1 365.81 591.04 433.16 591.04 433.16 533.77 391.48 476.5 433.15"
            transform="matrix(.70904 0 0 .73035 367.01 360.98)"/>
   <polygon id="polygon1309" points="498.45 365.81 441.12 324.21 511.95 324.28 533.78 256.9 555.61 324.28 626.44 324.23 569.1 365.81 591.04 433.16 591.04 433.16 533.77 391.48 476.5 433.15"
            transform="matrix(.70904 0 0 .73035 116.64 360.98)"/>
  </g>
 </g>
</svg>
