<?xml version="1.0" encoding="UTF-8" standalone="no"?>
<svg height="480" id="svg378" version="1" width="640" x="0" xmlns="http://www.w3.org/2000/svg" xmlns:cc="http://creativecommons.org/ns#" xmlns:dc="http://purl.org/dc/elements/1.1/" xmlns:rdf="http://www.w3.org/1999/02/22-rdf-syntax-ns#"
     y="0">
 <metadata id="metadata3619">
  <rdf:RDF>
   <cc:Work rdf:about="">
  <dc:format>image/svg+xml</dc:format>
  <dc:type rdf:resource="http://purl.org/dc/dcmitype/StillImage"/>
   </cc:Work>
  </rdf:RDF>
 </metadata>
 <g fill-rule="evenodd" id="flag">
  <rect fill="#fff" height="480" id="rect171" rx="0" ry="0" width="640" x="-2.1606e-8" y=".0000010549"/>
  <rect fill="#fff" height="159.3" id="rect256" rx="0" ry="0" width="480" x="-3.457e-7" y="320.7"/>
  <rect fill="#fff" height="159.3" id="rect255" width="480" x="-3.457e-7" y=".000033733"/>
  <path d="m201.9 281-28.822-20.867-28.68 21.072 10.667-34.242-28.628-21.145 35.418-0.2948 10.985-34.138 11.221 34.06 35.418 0.0449-28.481 21.344 10.902 34.166z" fill="#fff" id="path205"/>
  <path d="m509.54 281-28.822-20.867-28.68 21.072 10.667-34.242-28.628-21.145 35.418-0.2948 10.985-34.138 11.221 34.06 35.418 0.0449-28.481 21.344 10.902 34.166z" fill="#fff" id="path583"/>
  <rect height="159.3" id="rect7524" rx="0" ry="0" stroke-width="1pt" width="640" x="-3.457e-7" y="320.7"/>
  <rect fill="#f00" height="159.3" id="rect7526" stroke-width="1pt" width="640" x="-3.457e-7" y=".000033733"/>
  <path d="m201.9 281-28.822-20.867-28.68 21.072 10.667-34.242-28.628-21.145 35.418-0.2948 10.985-34.138 11.221 34.06 35.418 0.0449-28.481 21.344 10.902 34.166z" fill="#090" id="path7528"
        stroke-width=".11287"/>
  <path d="m509.54 281-28.822-20.867-28.68 21.072 10.667-34.242-28.628-21.145 35.418-0.2948 10.985-34.138 11.221 34.06 35.418 0.0449-28.481 21.344 10.902 34.166z" fill="#090" id="path7530"
        stroke-width=".11287"/>
 </g>
</svg>
