<?xml version="1.0" encoding="UTF-8" standalone="no"?>
<svg height="480" id="svg548" version="1.1" width="640" xmlns="http://www.w3.org/2000/svg" xmlns:cc="http://creativecommons.org/ns#" xmlns:dc="http://purl.org/dc/elements/1.1/"
     xmlns:rdf="http://www.w3.org/1999/02/22-rdf-syntax-ns#">
 <metadata id="metadata3717">
  <rdf:RDF>
   <cc:Work rdf:about="">
  <dc:format>image/svg+xml</dc:format>
  <dc:type rdf:resource="http://purl.org/dc/dcmitype/StillImage"/>
   </cc:Work>
  </rdf:RDF>
 </metadata>
 <defs id="defs550">
  <clipPath clipPathUnits="userSpaceOnUse" id="clipPath7468">
   <rect fill-opacity="0.67" height="512" id="rect7470" width="682.67" x="0" y="-.000013091"/>
  </clipPath>
 </defs>
 <g clip-path="url(#clipPath7468)" fill-rule="evenodd" id="flag" transform="matrix(.93750 0 0 .93750 0 .000012273)">
  <rect fill="#ffe300" height="512" id="rect558" stroke-width="1pt" width="767.63" x="0" y="-.000013369"/>
  <rect fill="#118600" height="102.81" id="rect555" stroke-width="1pt" width="767.63" x="0" y="208.14"/>
  <rect fill="#118600" height="102.81" id="rect570" stroke-width="1pt" width="767.63" x="0" y=".24819"/>
  <rect fill="#d80000" height="310.71" id="rect554" stroke-width="1pt" width="306.51" x="0" y=".24813"/>
  <path d="m134.42 128.43c0-0.85625 18.836-53.083 18.836-53.083l17.124 52.227s57.365 1.7125 57.365 0.85625-45.378 34.248-45.378 34.248 21.404 59.933 20.549 58.221c-0.85625-1.7125-49.659-35.96-49.659-35.96s-49.658 34.248-48.802 34.248c0.85625 0 18.835-56.508 18.835-56.508l-44.522-33.392 55.652-0.85625z"
        fill="#fff"
        id="path567"/>
  <rect fill="#118600" height="102.81" id="rect569" stroke-width="1pt" width="767.63" x="0" y="409.19"/>
 </g>
</svg>
