<?xml version="1.0" encoding="UTF-8" standalone="no"?>
<svg height="480" id="svg548" version="1.1" width="640" xmlns="http://www.w3.org/2000/svg" xmlns:cc="http://creativecommons.org/ns#" xmlns:dc="http://purl.org/dc/elements/1.1/"
     xmlns:rdf="http://www.w3.org/1999/02/22-rdf-syntax-ns#">
 <metadata id="metadata3781">
  <rdf:RDF>
   <cc:Work rdf:about="">
  <dc:format>image/svg+xml</dc:format>
  <dc:type rdf:resource="http://purl.org/dc/dcmitype/StillImage"/>
   </cc:Work>
  </rdf:RDF>
 </metadata>
 <defs id="defs550">
  <clipPath clipPathUnits="userSpaceOnUse" id="clipPath7035">
   <rect fill-opacity="0.67" height="512" id="rect7037" width="682.67" x="0" y=".000017120"/>
  </clipPath>
 </defs>
 <g clip-path="url(#clipPath7035)" fill-rule="evenodd" id="flag" transform="matrix(.93750 0 0 .93750 0 -.000016050)">
  <rect fill="#cb000f" height="512" id="rect672" stroke-width="1pt" width="1031.2" x="0" y=".000017855"/>
  <path d="m0 0.000033605c3.2337 0 512 256.72 512 256.72l-512 255.28v-512z" fill="#f8c00c" id="path671"/>
  <path d="m0 0.000033605c2.1513 0 340.62 256.72 340.62 256.72l-340.62 255.28v-512z" id="path670"/>
  <path d="m187.71 298.16-60.813-13.478-31.072 52.839-4.8613-59.677-60.753-13.372 54.84-24.817-3.2916-59.385 40.235 43.39 55.341-25.232-28.827 53.899 39.203 45.835z" fill="#fff" id="path663"/>
 </g>
</svg>
