<?xml version="1.0" encoding="UTF-8" standalone="no"?>
<svg height="480" id="svg548" version="1" width="640" x="0" xmlns="http://www.w3.org/2000/svg" xmlns:cc="http://creativecommons.org/ns#" xmlns:dc="http://purl.org/dc/elements/1.1/" xmlns:rdf="http://www.w3.org/1999/02/22-rdf-syntax-ns#"
     y="0">
 <metadata id="metadata3794">
  <rdf:RDF>
   <cc:Work rdf:about="">
  <dc:format>image/svg+xml</dc:format>
  <dc:type rdf:resource="http://purl.org/dc/dcmitype/StillImage"/>
   </cc:Work>
  </rdf:RDF>
 </metadata>
 <defs id="defs550">
  <clipPath clipPathUnits="userSpaceOnUse" id="clipPath3532">
   <rect fill-opacity="0.67" height="512.01" id="rect3534" width="682.68" x="-71.873" y="-.012254"/>
  </clipPath>
 </defs>
 <g clip-path="url(#clipPath3532)" id="flag" transform="matrix(.93748 0 0 .93748 67.379 .011488)">
  <g fill-rule="evenodd" id="g603" stroke-width="1pt" transform="matrix(2.0478 0 0 2.0484 -148.57 -1592.2)">
   <path d="m37.451 976.39v-148.12l110.28 74.022-110.28 74.103z" id="path581"/>
   <path d="m112.7 1027.3 123.81-83.306h175.98v83.306h-299.79z" fill="#00c" id="path597"/>
   <path d="m104.74 777.32 307.74 0.006v83.32h-175.98s-130.11-84.15-131.76-83.326z" fill="#f00" id="path598"/>
   <path d="m37.451 808.57v19.688l110.28 74.022-110.28 74.103v19.687l138.9-93.79-138.9-93.71z" fill="#fc0" id="path599"/>
   <path d="m37.451 808.57v-31.25h46.338l147.14 99.531h181.55v50.899h-181.55l-147.14 99.517h-46.338v-31.197l138.9-93.79-138.9-93.71z" fill="#093" id="path600"/>
   <path d="m83.789 777.32h28.906l123.81 83.32h175.98v16.211h-181.55l-147.14-99.531z" fill="#fff" id="path601"/>
   <path d="m83.789 1027.3h28.906l123.81-83.306h175.98v-16.211h-181.55l-147.14 99.517z" fill="#fff" id="path602"/>
  </g>
 </g>
</svg>
