<?xml version="1.0" encoding="UTF-8" standalone="no"?>
<svg height="512" width="512" xmlns="http://www.w3.org/2000/svg">
  <defs>
    <clipPath id="a">
      <path d="M0 0h512v512H0z" fill="gray"/>
    </clipPath>
  </defs>
  <g clip-path="url(#a)">
    <path d="M0 0v512.006h768.01V0H0z" fill="#39c"/>
    <path d="M0 341.338v28.445h768.01v-28.445H0zM0 398.227v28.445h768.01v-28.445H0z" fill="#ff0"/>
    <g>
      <path d="M122.065 28.067l2.38 2.38-2.38-2.38zM119.685 32.827l2.38 2.38-2.38-2.38m4.76 0l2.38 2.38-2.38-2.38z" fill="#9cc"/>
      <path d="M119.685 35.208l2.38 2.38-2.38-2.38m4.76 0l2.38 2.38-2.38-2.38z" fill="#ccf"/>
      <path d="M117.305 39.97l2.38 2.38-2.38-2.38z" fill="#6cc"/>
      <path d="M122.065 39.97l2.38 2.38-2.38-2.38z" fill="#c66"/>
      <path d="M126.826 39.97l2.38 2.38-2.38-2.38z" fill="#6cc"/>
      <path d="M117.305 42.35l2.38 2.38-2.38-2.38zM126.826 42.35l2.38 2.38-2.38-2.38z" fill="#ccf"/>
      <path d="M119.685 44.73l2.38 2.38-2.38-2.38m4.76 0l2.38 2.38-2.38-2.38z" fill="#fcc"/>
      <path d="M114.924 47.11l2.38 2.38-2.38-2.38z" fill="#6cc"/>
      <path d="M121.673 32.904L104.986 96.16l-63.442 17.23 63.26 16.51 16.87 63.257L138.54 129.9l63.26-16.87-63.26-16.87-16.867-63.256z" fill="#c00" stroke="#fff" stroke-width="2.9755"/>
      <path d="M129.207 47.11l2.38 2.38-2.38-2.38z" fill="#6cc"/>
      <path d="M114.924 49.49l2.38 2.38-2.38-2.38m14.283 0l2.38 2.38-2.38-2.38z" fill="#9cf"/>
      <path d="M117.305 51.87l2.38 2.38-2.38-2.38m9.52 0l2.382 2.38-2.38-2.38z" fill="#fcc"/>
      <path d="M112.544 54.25l2.38 2.38-2.38-2.38z" fill="#69c"/>
      <path d="M118.097 55.84l.794 1.585-.793-1.586m9.522 0l.793 1.585-.794-1.586z" fill="#c33"/>
      <path d="M131.587 54.25l2.38 2.38-2.38-2.38z" fill="#69c"/>
      <path d="M112.544 56.63l2.38 2.382-2.38-2.38m19.043 0l2.38 2.38-2.38-2.38z" fill="#9cf"/>
      <path d="M114.924 59.012l2.38 2.38-2.38-2.38m14.283 0l2.38 2.38-2.38-2.38z" fill="#fcc"/>
      <path d="M110.163 61.392l2.38 2.38-2.38-2.38zM133.968 61.392l2.38 2.38-2.38-2.38z" fill="#69c"/>
      <path d="M110.163 63.773l2.38 2.38-2.38-2.38m23.805 0l2.38 2.38-2.38-2.38z" fill="#9cc"/>
      <path d="M110.163 66.153l2.38 2.38-2.38-2.38m23.805 0l2.38 2.38-2.38-2.38z" fill="#cff"/>
      <path d="M107.783 68.533l2.38 2.38-2.38-2.38z" fill="#69c"/>
      <path d="M112.544 68.533l2.38 2.38-2.38-2.38m19.043 0l2.38 2.38-2.38-2.38z" fill="#fcc"/>
      <path d="M136.348 68.533l2.38 2.38-2.38-2.38z" fill="#69c"/>
      <path d="M107.783 70.914l2.38 2.38-2.38-2.38z" fill="#9cc"/>
      <path d="M113.337 72.502l.793 1.586-.793-1.586m19.043 0l.793 1.586-.793-1.586z" fill="#c33"/>
      <path d="M136.348 70.914l2.38 2.38-2.38-2.38z" fill="#9cc"/>
      <path d="M107.783 73.294l2.38 2.38-2.38-2.38m28.565 0l2.38 2.38-2.38-2.38z" fill="#cff"/>
      <path d="M110.163 75.675l2.38 2.38-2.38-2.38m23.805 0l2.38 2.38-2.38-2.38z" fill="#fcc"/>
      <path d="M105.403 78.055l2.38 2.38-2.38-2.38z" fill="#9cc"/>
      <path d="M110.956 79.643l.794 1.586-.794-1.587m23.804 0l.794 1.586-.794-1.587z" fill="#c33"/>
      <path d="M138.728 78.055l2.38 2.38-2.38-2.38z" fill="#9cc"/>
      <path d="M105.403 80.435l2.38 2.38-2.38-2.38m33.325 0l2.38 2.38-2.38-2.38z" fill="#ccf"/>
      <path d="M107.783 82.816l2.38 2.38-2.38-2.38m28.565 0l2.38 2.38-2.38-2.38z" fill="#fcc"/>
      <path d="M103.022 85.196l2.38 2.38-2.38-2.38z" fill="#9cc"/>
      <path d="M108.576 86.784l.793 1.587-.794-1.586m28.565 0l.794 1.587-.793-1.586z" fill="#c33"/>
      <path d="M141.11 85.196l2.38 2.38-2.38-2.38z" fill="#9cc"/>
      <path d="M103.022 87.577l2.38 2.38-2.38-2.38m38.087 0l2.38 2.38-2.38-2.38z" fill="#ccf"/>
      <path d="M105.403 89.957l2.38 2.38-2.38-2.38m33.325 0l2.38 2.38-2.38-2.38z" fill="#fcc"/>
      <path d="M100.642 92.337l2.38 2.38-2.38-2.38z" fill="#9cc"/>
      <path d="M105.403 92.337l2.38 2.38-2.38-2.38m33.325 0l2.38 2.38-2.38-2.38z" fill="#c33"/>
      <path d="M143.49 92.337l2.38 2.38-2.38-2.38m-49.99 2.38l2.38 2.38-2.38-2.38z" fill="#9cc"/>
      <path d="M95.88 94.718l2.382 2.38-2.38-2.38m52.368 0l2.38 2.38-2.38-2.38z" fill="#ccf"/>
      <path d="M150.63 94.718l2.38 2.38-2.38-2.38m-64.27 2.38l2.38 2.38-2.38-2.38z" fill="#9cc"/>
      <path d="M88.74 97.098l2.38 2.38-2.38-2.38z" fill="#ccf"/>
      <path d="M98.26 97.098l2.382 2.38-2.38-2.38z" fill="#fcc"/>
      <path d="M100.642 97.098l2.38 2.38-2.38-2.38m42.847 0l2.38 2.38-2.38-2.38z" fill="#c33"/>
      <path d="M145.87 97.098l2.38 2.38-2.38-2.38z" fill="#fcc"/>
      <path d="M155.39 97.098l2.382 2.38-2.38-2.38z" fill="#ccf"/>
      <path d="M157.77 97.098l2.382 2.38-2.38-2.38z" fill="#9cc"/>
      <path d="M76.838 99.48l2.38 2.38-2.38-2.38z" fill="#69c"/>
      <path d="M79.218 99.48l2.38 2.38-2.38-2.38z" fill="#9cc"/>
      <path d="M81.6 99.48l2.38 2.38-2.38-2.38z" fill="#cff"/>
      <path d="M91.12 99.48l2.38 2.38-2.38-2.38z" fill="#fcc"/>
      <path d="M95.088 100.27l1.587.795-1.587-.794m54.75 0l1.586.795-1.586-.794z" fill="#c33"/>
      <path d="M153.01 99.48l2.38 2.38-2.38-2.38z" fill="#fcc"/>
      <path d="M162.532 99.48l2.38 2.38-2.38-2.38z" fill="#cff"/>
      <path d="M164.913 99.48l2.38 2.38-2.38-2.38z" fill="#9cc"/>
      <path d="M167.293 99.48l2.38 2.38-2.38-2.38m-97.596 2.38l2.38 2.38-2.38-2.38z" fill="#69c"/>
      <path d="M72.077 101.86l2.38 2.38-2.38-2.38z" fill="#9cc"/>
      <path d="M74.457 101.86l2.38 2.38-2.38-2.38z" fill="#cff"/>
      <path d="M83.98 101.86l2.38 2.38-2.38-2.38z" fill="#fcc"/>
      <path d="M87.947 102.652l1.587.793-1.587-.793m69.032 0l1.586.793-1.587-.793z" fill="#c33"/>
      <path d="M160.152 101.86l2.38 2.38-2.38-2.38z" fill="#fcc"/>
      <path d="M169.673 101.86l2.38 2.38-2.38-2.38z" fill="#cff"/>
      <path d="M172.054 101.86l2.38 2.38-2.38-2.38z" fill="#9cc"/>
      <path d="M174.434 101.86l2.38 2.38-2.38-2.38m-111.88 2.38l2.382 2.38-2.38-2.38z" fill="#69c"/>
      <path d="M64.936 104.24l2.38 2.38-2.38-2.38z" fill="#9cf"/>
      <path d="M76.838 104.24l2.38 2.38-2.38-2.38z" fill="#fcc"/>
      <path d="M80.806 105.032l1.587.794-1.587-.794m83.314 0l1.587.794-1.587-.794z" fill="#c33"/>
      <path d="M167.293 104.24l2.38 2.38-2.38-2.38z" fill="#fcc"/>
      <path d="M179.195 104.24l2.38 2.38-2.38-2.38z" fill="#9cf"/>
      <path d="M181.575 104.24l2.38 2.38-2.38-2.38z" fill="#69c"/>
      <path d="M55.414 106.62l2.38 2.38-2.38-2.38z" fill="#6cc"/>
      <path d="M57.795 106.62l2.38 2.38-2.38-2.38z" fill="#9cf"/>
      <path d="M67.316 106.62l2.38 2.38-2.38-2.38zM176.815 106.62l2.38 2.38-2.38-2.38z" fill="#fcc"/>
      <path d="M186.336 106.62l2.38 2.38-2.38-2.38z" fill="#9cf"/>
      <path d="M188.717 106.62l2.38 2.38-2.38-2.38M48.273 109l2.38 2.38-2.38-2.38z" fill="#6cc"/>
      <path d="M50.654 109l2.38 2.38-2.38-2.38z" fill="#ccf"/>
      <path d="M60.175 109l2.38 2.38-2.38-2.38z" fill="#fcc"/>
      <path d="M64.143 109.793l1.587.793-1.587-.793m116.64 0l1.587.793-1.587-.793z" fill="#c33"/>
      <path d="M183.956 109l2.38 2.38-2.38-2.38z" fill="#fcc"/>
      <path d="M193.477 109l2.38 2.38-2.38-2.38z" fill="#ccf"/>
      <path d="M195.858 109l2.38 2.38-2.38-2.38z" fill="#6cc"/>
      <path d="M41.132 111.38l2.38 2.38-2.38-2.38z" fill="#9cc"/>
      <path d="M43.512 111.38l2.38 2.38-2.38-2.38z" fill="#ccf"/>
      <path d="M53.034 111.38l2.38 2.38-2.38-2.38zM191.097 111.38l2.38 2.38-2.38-2.38z" fill="#fcc"/>
      <path d="M200.62 111.38l2.38 2.38-2.38-2.38z" fill="#ccf"/>
      <path d="M203 111.38l2.38 2.38-2.38-2.38m-166.63 2.38l2.38 2.38-2.38-2.38z" fill="#9cc"/>
      <path d="M48.273 113.76l2.38 2.38-2.38-2.38zM195.858 113.76l2.38 2.38-2.38-2.38z" fill="#c66"/>
      <path d="M207.76 113.76l2.38 2.38-2.38-2.38m-166.628 2.38l2.38 2.382-2.38-2.38z" fill="#9cc"/>
      <path d="M43.512 116.14l2.38 2.382-2.38-2.38z" fill="#ccf"/>
      <path d="M53.034 116.14l2.38 2.382-2.38-2.38m138.063 0l2.38 2.38-2.38-2.38z" fill="#fcc"/>
      <path d="M200.62 116.14l2.38 2.382-2.38-2.38z" fill="#ccf"/>
      <path d="M203 116.14l2.38 2.382-2.38-2.38z" fill="#9cc"/>
      <path d="M48.273 118.522l2.38 2.38-2.38-2.38z" fill="#6cc"/>
      <path d="M50.654 118.522l2.38 2.38-2.38-2.38z" fill="#ccf"/>
      <path d="M60.175 118.522l2.38 2.38-2.38-2.38z" fill="#fcc"/>
      <path d="M64.143 119.314l1.587.794-1.587-.794m116.64 0l1.587.794-1.587-.794z" fill="#c33"/>
      <path d="M183.956 118.522l2.38 2.38-2.38-2.38z" fill="#fcc"/>
      <path d="M193.477 118.522l2.38 2.38-2.38-2.38z" fill="#ccf"/>
      <path d="M195.858 118.522l2.38 2.38-2.38-2.38m-140.444 2.38l2.38 2.38-2.38-2.38z" fill="#6cc"/>
      <path d="M57.795 120.902l2.38 2.38-2.38-2.38z" fill="#9cf"/>
      <path d="M67.316 120.902l2.38 2.38-2.38-2.38zM176.815 120.902l2.38 2.38-2.38-2.38z" fill="#fcc"/>
      <path d="M186.336 120.902l2.38 2.38-2.38-2.38z" fill="#9cf"/>
      <path d="M188.717 120.902l2.38 2.38-2.38-2.38z" fill="#6cc"/>
      <path d="M62.555 123.283l2.38 2.38-2.38-2.38z" fill="#69c"/>
      <path d="M64.936 123.283l2.38 2.38-2.38-2.38z" fill="#9cf"/>
      <path d="M76.838 123.283l2.38 2.38-2.38-2.38z" fill="#fcc"/>
      <path d="M80.806 124.075l1.587.794-1.587-.795m83.314 0l1.587.794-1.587-.795z" fill="#c33"/>
      <path d="M167.293 123.283l2.38 2.38-2.38-2.38z" fill="#fcc"/>
      <path d="M179.195 123.283l2.38 2.38-2.38-2.38z" fill="#9cf"/>
      <path d="M181.575 123.283l2.38 2.38-2.38-2.38m-111.878 2.38l2.38 2.38-2.38-2.38z" fill="#69c"/>
      <path d="M72.077 125.663l2.38 2.38-2.38-2.38z" fill="#9cc"/>
      <path d="M74.457 125.663l2.38 2.38-2.38-2.38z" fill="#cff"/>
      <path d="M83.98 125.663l2.38 2.38-2.38-2.38z" fill="#fcc"/>
      <path d="M87.947 126.456l1.587.793-1.587-.794m69.032 0l1.586.793-1.587-.794z" fill="#c33"/>
      <path d="M160.152 125.663l2.38 2.38-2.38-2.38z" fill="#fcc"/>
      <path d="M169.673 125.663l2.38 2.38-2.38-2.38z" fill="#cff"/>
      <path d="M172.054 125.663l2.38 2.38-2.38-2.38z" fill="#9cc"/>
      <path d="M174.434 125.663l2.38 2.38-2.38-2.38m-97.596 2.38l2.38 2.38-2.38-2.38z" fill="#69c"/>
      <path d="M79.218 128.043l2.38 2.38-2.38-2.38z" fill="#9cc"/>
      <path d="M81.6 128.043l2.38 2.38-2.38-2.38z" fill="#cff"/>
      <path d="M91.12 128.043l2.38 2.38-2.38-2.38z" fill="#fcc"/>
      <path d="M95.088 128.836l1.587.794-1.587-.794m54.75 0l1.586.794-1.586-.794z" fill="#c33"/>
      <path d="M153.01 128.043l2.38 2.38-2.38-2.38z" fill="#fcc"/>
      <path d="M162.532 128.043l2.38 2.38-2.38-2.38z" fill="#cff"/>
      <path d="M164.913 128.043l2.38 2.38-2.38-2.38z" fill="#9cc"/>
      <path d="M167.293 128.043l2.38 2.38-2.38-2.38z" fill="#69c"/>
      <path d="M86.36 130.424l2.38 2.38-2.38-2.38z" fill="#9cc"/>
      <path d="M88.74 130.424l2.38 2.38-2.38-2.38z" fill="#ccf"/>
      <path d="M98.26 130.424l2.382 2.38-2.38-2.38z" fill="#fcc"/>
      <path d="M100.642 130.424l2.38 2.38-2.38-2.38m42.847 0l2.38 2.38-2.38-2.38z" fill="#c33"/>
      <path d="M145.87 130.424l2.38 2.38-2.38-2.38z" fill="#fcc"/>
      <path d="M155.39 130.424l2.382 2.38-2.38-2.38z" fill="#ccf"/>
      <path d="M157.77 130.424l2.382 2.38-2.38-2.38m-64.27 2.38l2.38 2.38-2.38-2.38z" fill="#9cc"/>
      <path d="M95.88 132.804l2.382 2.38-2.38-2.38m52.368 0l2.38 2.38-2.38-2.38z" fill="#ccf"/>
      <path d="M150.63 132.804l2.38 2.38-2.38-2.38m-49.988 2.38l2.38 2.38-2.38-2.38z" fill="#9cc"/>
      <path d="M105.403 135.185l2.38 2.38-2.38-2.38m33.325 0l2.38 2.38-2.38-2.38z" fill="#c33"/>
      <path d="M143.49 135.185l2.38 2.38-2.38-2.38z" fill="#9cc"/>
      <path d="M105.403 137.565l2.38 2.38-2.38-2.38m33.325 0l2.38 2.38-2.38-2.38z" fill="#fcc"/>
      <path d="M103.022 139.945l2.38 2.38-2.38-2.38z" fill="#ccf"/>
      <path d="M108.576 141.533l.793 1.587-.794-1.587m28.565 0l.794 1.587-.793-1.587z" fill="#c33"/>
      <path d="M141.11 139.945l2.38 2.38-2.38-2.38z" fill="#ccf"/>
      <path d="M103.022 142.326l2.38 2.38-2.38-2.38m38.087 0l2.38 2.38-2.38-2.38z" fill="#9cc"/>
      <path d="M107.783 144.706l2.38 2.38-2.38-2.38m28.565 0l2.38 2.38-2.38-2.38z" fill="#fcc"/>
      <path d="M105.403 147.087l2.38 2.38-2.38-2.38z" fill="#ccf"/>
      <path d="M110.956 148.674l.794 1.587-.794-1.586m23.804 0l.794 1.587-.794-1.586z" fill="#c33"/>
      <path d="M138.728 147.087l2.38 2.38-2.38-2.38z" fill="#ccf"/>
      <path d="M105.403 149.467l2.38 2.38-2.38-2.38m33.325 0l2.38 2.38-2.38-2.38z" fill="#9cc"/>
      <path d="M110.163 151.847l2.38 2.38-2.38-2.38m23.805 0l2.38 2.38-2.38-2.38z" fill="#fcc"/>
      <path d="M107.783 154.228l2.38 2.38-2.38-2.38z" fill="#cff"/>
      <path d="M113.337 155.816l.793 1.586-.793-1.586m19.043 0l.793 1.586-.793-1.586z" fill="#c33"/>
      <path d="M136.348 154.228l2.38 2.38-2.38-2.38z" fill="#cff"/>
      <path d="M107.783 156.608l2.38 2.38-2.38-2.38m28.565 0l2.38 2.38-2.38-2.38z" fill="#9cc"/>
      <path d="M107.783 158.99l2.38 2.38-2.38-2.38z" fill="#69c"/>
      <path d="M112.544 158.99l2.38 2.38-2.38-2.38m19.043 0l2.38 2.38-2.38-2.38z" fill="#fcc"/>
      <path d="M136.348 158.99l2.38 2.38-2.38-2.38z" fill="#69c"/>
      <path d="M110.163 161.37l2.38 2.38-2.38-2.38zM133.968 161.37l2.38 2.38-2.38-2.38z" fill="#cff"/>
      <path d="M110.163 163.75l2.38 2.38-2.38-2.38m23.805 0l2.38 2.38-2.38-2.38z" fill="#9cc"/>
      <path d="M110.163 166.13l2.38 2.38-2.38-2.38m23.805 0l2.38 2.38-2.38-2.38z" fill="#69c"/>
      <path d="M114.924 168.51l2.38 2.38-2.38-2.38m14.283 0l2.38 2.38-2.38-2.38z" fill="#fcc"/>
      <path d="M112.544 170.89l2.38 2.38-2.38-2.38z" fill="#9cf"/>
      <path d="M118.097 172.478l.794 1.587-.793-1.587m9.522 0l.793 1.587-.794-1.587z" fill="#c33"/>
      <path d="M131.587 170.89l2.38 2.38-2.38-2.38z" fill="#9cf"/>
      <path d="M112.544 173.27l2.38 2.38-2.38-2.38m19.043 0l2.38 2.38-2.38-2.38z" fill="#69c"/>
      <path d="M117.305 175.65l2.38 2.382-2.38-2.38m9.52 0l2.382 2.38-2.38-2.38z" fill="#fcc"/>
      <path d="M114.924 178.032l2.38 2.38-2.38-2.38zM129.207 178.032l2.38 2.38-2.38-2.38z" fill="#9cf"/>
      <path d="M114.924 180.412l2.38 2.38-2.38-2.38m14.283 0l2.38 2.38-2.38-2.38z" fill="#6cc"/>
      <path d="M119.685 182.793l2.38 2.38-2.38-2.38m4.76 0l2.38 2.38-2.38-2.38z" fill="#fcc"/>
      <path d="M117.305 185.173l2.38 2.38-2.38-2.38m9.52 0l2.382 2.38-2.38-2.38z" fill="#ccf"/>
      <path d="M117.305 187.553l2.38 2.38-2.38-2.38z" fill="#6cc"/>
      <path d="M122.065 187.553l2.38 2.38-2.38-2.38z" fill="#c66"/>
      <path d="M126.826 187.553l2.38 2.38-2.38-2.38z" fill="#6cc"/>
      <path d="M119.685 192.314l2.38 2.38-2.38-2.38m4.76 0l2.38 2.38-2.38-2.38z" fill="#ccf"/>
      <path d="M119.685 194.695l2.38 2.38-2.38-2.38m4.76 0l2.38 2.38-2.38-2.38m-2.38 4.76l2.38 2.38-2.38-2.38z" fill="#9cc"/>
    </g>
  </g>
</svg>
