<?xml version="1.0" encoding="UTF-8" standalone="no"?>
<svg height="512" viewBox="-5 -5 10.24 10.24" width="512" xmlns="http://www.w3.org/2000/svg" xmlns:xlink="http://www.w3.org/1999/xlink">
  <title>
    Flag of the People&apos;s Republic of China
  </title>
  <defs>
    <path d="M.95-.31L-.587.81 0-1 .588.81-.952-.31z" fill="#ffde00" id="b"/>
    <clipPath id="a">
      <path d="M-5-15.4h20v20H-5z"/>
    </clipPath>
  </defs>
  <g clip-path="url(#a)" transform="matrix(.512 0 0 .512 -2.44 2.885)">
    <path d="M-5-15.4h30v20H-5z" fill="#de2910"/>
    <use height="20" transform="matrix(3 0 0 3 0 -10.4)" width="30" xlink:href="#b"/>
    <use height="20" transform="matrix(-.514 -.857 .857 -.514 5 -13.4)" width="30" xlink:href="#b"/>
    <use height="20" transform="rotate(-98.106 -1.446 -8.737)" width="30" xlink:href="#b"/>
    <use height="20" transform="matrix(.275 -.962 .962 .275 7 -8.4)" width="30" xlink:href="#b"/>
    <use height="20" transform="matrix(.625 -.78 .78 .625 5 -6.4)" width="30" xlink:href="#b"/>
  </g>
</svg>
