<?xml version="1.0" encoding="UTF-8" standalone="no"?>
<svg height="512" width="512" xmlns="http://www.w3.org/2000/svg">
  <defs>
    <clipPath id="a">
      <path d="M0 0h666v666H0z" fill-opacity=".67"/>
    </clipPath>
  </defs>
  <g clip-path="url(#a)" transform="scale(.77)">
    <g fill-rule="evenodd" stroke-width="1pt">
      <path d="M0 0h999v74H0z" fill="#0d5eaf"/>
      <path d="M0 74h999v74H0z" fill="#fff"/>
      <path d="M0 148h999v74H0z" fill="#0d5eaf"/>
      <path d="M0 222h999v74H0z" fill="#fff"/>
      <path d="M0 296h999v74H0z" fill="#0d5eaf"/>
      <path d="M0 370h999v74H0z" fill="#fff"/>
      <path d="M0 444h999v74H0z" fill="#0d5eaf"/>
      <path d="M0 518h999v74H0z" fill="#fff"/>
      <path d="M0 592h999v74H0zM0 0h370v370H0z" fill="#0d5eaf"/>
      <g fill="#fff">
        <path d="M148 0h74v370h-74z"/>
        <path d="M0 148h370v74H0z"/>
      </g>
    </g>
  </g>
</svg>
