<?xml version="1.0" encoding="UTF-8" standalone="no"?>
<svg height="512" id="svg660" version="1.1" width="512" xmlns="http://www.w3.org/2000/svg" xmlns:cc="http://creativecommons.org/ns#" xmlns:dc="http://purl.org/dc/elements/1.1/"
     xmlns:rdf="http://www.w3.org/1999/02/22-rdf-syntax-ns#">
 <metadata id="metadata4850">
  <rdf:RDF>
   <cc:Work rdf:about="">
  <dc:format>image/svg+xml</dc:format>
  <dc:type rdf:resource="http://purl.org/dc/dcmitype/StillImage"/>
   </cc:Work>
  </rdf:RDF>
 </metadata>
 <defs id="defs662">
  <clipPath clipPathUnits="userSpaceOnUse" id="clipPath4980">
   <rect fill-opacity="0.67" height="416.25" id="rect4982" width="416.25" x="0" y="-.000013485"/>
  </clipPath>
 </defs>
 <g clip-path="url(#clipPath4980)" fill-rule="evenodd" id="flag" transform="matrix(1.23 0 0 1.23 0 .000016587)">
  <rect fill="#ff0" height="104.06" id="rect665" stroke-width="1pt" width="625" x="0" y="-.000015"/>
  <rect fill="#fff" height="104.06" id="rect668" stroke-width="1pt" width="625" x="0" y="104.06"/>
  <rect fill="#be0027" height="104.06" id="rect667" stroke-width="1pt" width="625" x="0" y="208.12"/>
  <rect fill="#3b5aa3" height="104.06" id="rect666" stroke-width="1pt" width="625" x="0" y="312.19"/>
  <path d="m0 0.75619v415.49l310.45-207.16-310.45-208.33z" fill="#239e46" id="path664" transform="matrix(1 0 0 1.0018 0 -.75756)"/>
  <path d="m127.81 114.98c-69.183-3.51-100.7 51.6-100.63 94.2-0.159 50.38 47.582 91.93 91.71 89.43-23.794-11.26-52.85-42.82-53.117-89.64-0.2436-42.423 23.977-79.31 62.038-93.99z" fill="#fff"
        id="path673"/>
  <polygon d="m 126.77341,160.21338 -9.75793,-7.62986 -11.8172,3.71287 4.24106,-11.63809 -7.18286,-10.0915 12.37904,0.43712 7.37795,-9.94975 3.40961,11.90825 11.74269,3.94221 -10.27179,6.92258 z"
           fill="#fff"
           id="polygon674" points="126.77 160.21 117.02 152.58 105.2 156.3 109.44 144.66 102.26 134.57 114.64 135 122.01 125.05 125.42 136.96 137.17 140.9 126.89 147.83" stroke-width="1pt"/>
  <polygon d="m 126.77341,160.21338 -9.75793,-7.62986 -11.8172,3.71287 4.24106,-11.63809 -7.18286,-10.0915 12.37904,0.43712 7.37795,-9.94975 3.40961,11.90825 11.74269,3.94221 -10.27179,6.92258 z"
           fill="#fff"
           id="polygon675" points="126.77 160.21 117.02 152.58 105.2 156.3 109.44 144.66 102.26 134.57 114.64 135 122.01 125.05 125.42 136.96 137.17 140.9 126.89 147.83"
           stroke-width="1pt" transform="translate(-.20749 42.327)"/>
  <polygon d="m 126.77341,160.21338 -9.75793,-7.62986 -11.8172,3.71287 4.24106,-11.63809 -7.18286,-10.0915 12.37904,0.43712 7.37795,-9.94975 3.40961,11.90825 11.74269,3.94221 -10.27179,6.92258 z"
           fill="#fff"
           id="polygon676" points="126.77 160.21 117.02 152.58 105.2 156.3 109.44 144.66 102.26 134.57 114.64 135 122.01 125.05 125.42 136.96 137.17 140.9 126.89 147.83"
           stroke-width="1pt" transform="translate(-.0000096112 85.069)"/>
  <polygon d="m 126.77341,160.21338 -9.75793,-7.62986 -11.8172,3.71287 4.24106,-11.63809 -7.18286,-10.0915 12.37904,0.43712 7.37795,-9.94975 3.40961,11.90825 11.74269,3.94221 -10.27179,6.92258 z"
           fill="#fff"
           id="polygon677" points="126.77 160.21 117.02 152.58 105.2 156.3 109.44 144.66 102.26 134.57 114.64 135 122.01 125.05 125.42 136.96 137.17 140.9 126.89 147.83"
           stroke-width="1pt" transform="translate(-.20749 128.23)"/>
 </g>
</svg>
