<?xml version="1.0" encoding="UTF-8" standalone="no"?>
<svg height="512" id="svg378" version="1" width="512" x="0" xmlns="http://www.w3.org/2000/svg" xmlns:cc="http://creativecommons.org/ns#" xmlns:dc="http://purl.org/dc/elements/1.1/" xmlns:rdf="http://www.w3.org/1999/02/22-rdf-syntax-ns#"
     y="0">
 <metadata id="metadata4863">
  <rdf:RDF>
   <cc:Work rdf:about="">
  <dc:format>image/svg+xml</dc:format>
  <dc:type rdf:resource="http://purl.org/dc/dcmitype/StillImage"/>
   </cc:Work>
  </rdf:RDF>
 </metadata>
 <defs id="defs380">
  <clipPath clipPathUnits="userSpaceOnUse" id="clipPath4933">
   <rect fill-opacity="0.67" height="745.12" id="rect4935" width="745.12" x="151.69" y="-.34720"/>
  </clipPath>
 </defs>
 <g clip-path="url(#clipPath4933)" fill-rule="evenodd" id="flag" transform="matrix(.68714 0 0 .68714 -104.23 .23857)">
  <rect fill="#ffe900" height="744.09" id="rect628" transform="translate(-1149.6 -145.85)" width="1073.5" x="1144.3" y="145.85"/>
  <path d="m-2.6622-3.5704 1.246 536.41 835.33-536.76-836.57 0.3496z" fill="#35a100" id="path623" transform="translate(-3.1757 3.5705)"/>
  <path d="m1069.5 744.09-1.9-557.75-842.62 558.17 844.52-0.42z" fill="#c70000" id="path624"/>
  <path d="m-2.1244 573.28 0.70812 167.92 182.28-0.24 890.3-596.88-1-146l-180.14-1.6504-892.18 576.85z" id="path625" transform="translate(-3.1757 3.5705)"/>
  <polygon fill="#fff" id="polygon136"
           points="591.04 433.16 533.77 391.48 476.5 433.15 498.45 365.81 441.12 324.21 511.95 324.28 533.78 256.9 555.61 324.28 626.44 324.23 569.1 365.81" transform="matrix(.78140 -.50566 .46724 .74860 153.82 243.69)"/>
  <polygon fill="#fff" id="polygon638"
           points="591.04 433.16 533.77 391.48 476.5 433.15 498.45 365.81 441.12 324.21 511.95 324.28 533.78 256.9 555.61 324.28 626.44 324.23 569.1 365.81" transform="matrix(.78140 -.50566 .46724 .74860 -246.76 504.07)"/>
 </g>
</svg>
