<?xml version="1.0" encoding="UTF-8" standalone="no"?>
<svg height="512" id="svg378" version="1" width="512" x="0" xmlns="http://www.w3.org/2000/svg" xmlns:cc="http://creativecommons.org/ns#" xmlns:dc="http://purl.org/dc/elements/1.1/" xmlns:rdf="http://www.w3.org/1999/02/22-rdf-syntax-ns#"
     y="0">
 <metadata id="metadata11">
  <rdf:RDF>
   <cc:Work rdf:about="">
  <dc:format>image/svg+xml</dc:format>
  <dc:type rdf:resource="http://purl.org/dc/dcmitype/StillImage"/>
   </cc:Work>
  </rdf:RDF>
 </metadata>
 <defs id="defs380">
  <clipPath clipPathUnits="userSpaceOnUse" id="clipPath9232">
   <rect fill-opacity="0.67" height="485.5" id="rect9234" width="593.6" x="92.213" y="7.8281"/>
  </clipPath>
 </defs>
 <g clip-path="url(#clipPath9232)" fill-rule="evenodd" id="flag" transform="matrix(.86254 0 0 1.0546 -79.537 -8.2554)">
  <rect fill="#fff" height="484.5" id="rect149" stroke="#000" stroke-width=".79701pt" transform="scale(-1)" width="987.63" x="-991.81" y="-492.88"/>
  <rect fill="#3e5698" height="87.672" id="rect148" stroke-width="1pt" transform="scale(-1,1)" width="987.63" x="-991.81" y="405.21"/>
  <rect fill="#c60000" height="268.55" id="rect605" stroke-width="1pt" transform="scale(-1)" width="987.63" x="-991.81" y="-384.9"/>
  <rect fill="#3e5698" height="87.672" id="rect606" stroke-width="1pt" transform="scale(-1,1)" width="987.63" x="-991.81" y="8.3739"/>
  <path d="m495.86 1148c0 90.46-73.332 163.79-163.79 163.79-90.46 0-163.79-73.332-163.79-163.79 0-90.46 73.332-163.79 163.79-163.79 90.46 0 163.79 73.332 163.79 163.79z" fill="#fff"
        id="path607" transform="matrix(.83963 0 0 .66512 56.749 -512.91)"/>
  <polygon fill="#c40000" id="polygon136"
           points="591.04 433.16 591.04 433.16 533.77 391.48 476.5 433.15 498.45 365.81 441.12 324.21 511.95 324.28 533.78 256.9 555.61 324.28 626.44 324.23 569.1 365.81" transform="matrix(1.163 -.0047865 -.012663 .93245 -279.04 -74.321)"/>
 </g>
</svg>
