<?xml version="1.0" encoding="UTF-8" standalone="no"?>
<svg height="512" id="svg665" version="1.1" width="512" xmlns="http://www.w3.org/2000/svg" xmlns:cc="http://creativecommons.org/ns#" xmlns:dc="http://purl.org/dc/elements/1.1/"
     xmlns:rdf="http://www.w3.org/1999/02/22-rdf-syntax-ns#">
 <metadata id="metadata3336">
  <rdf:RDF>
   <cc:Work rdf:about="">
  <dc:format>image/svg+xml</dc:format>
  <dc:type rdf:resource="http://purl.org/dc/dcmitype/StillImage"/>
   </cc:Work>
  </rdf:RDF>
 </metadata>
 <defs id="defs667">
  <clipPath clipPathUnits="userSpaceOnUse" id="clipPath3051">
   <rect fill-opacity="0.67" height="512" id="rect3053" width="512" x="0" y="0"/>
  </clipPath>
 </defs>
 <g clip-path="url(#clipPath3051)" fill-rule="evenodd" id="flag">
  <rect fill="#fff" height="511.92" id="rect560" stroke-width="1pt" width="767.87" x=".000014447" y=".083530"/>
  <rect fill="#006" height="232.75" id="rect668" stroke-width="1pt" width="232.74" x="-3.5028e-14" y="-9.5483e-7"/>
  <rect fill="#c00" height="47.127" id="rect669" stroke-width="1pt" width="767.89" x=".000014447" y="464.87"/>
  <rect fill="#c00" height="46.574" id="rect670" stroke-width="1pt" width="767.89" x=".000014447" y="465.43"/>
  <rect fill="#c00" height="46.21" id="rect672" stroke-width="1pt" width="767.89" x="0" y="372.52"/>
  <rect fill="#c00" height="46.7" id="rect673" stroke-width="1pt" width="765.96" x="0" y="279.26"/>
  <rect fill="#c00" height="46.494" id="rect675" stroke-width="1pt" width="535.17" x="232.67" y=".055372"/>
  <rect fill="#c00" height="46.796" id="rect676" stroke-width="1pt" width="535.17" x="232.67" y="186.06"/>
  <rect fill="#c00" height="46.494" id="rect677" stroke-width="1pt" width="535.17" x="232.67" y="93.361"/>
  <path d="m166.35 177.47-50.71-30.98-50.465 31.29 18.769-50.85-50.373-31.394 62.321-0.438 19.328-50.691l19.744 50.574 62.321 0.0667-50.115 31.693 19.184 50.732z" fill="#fff" id="path205"
        stroke-width=".11287"/>
 </g>
</svg>
