<?xml version="1.0" encoding="UTF-8" standalone="no"?>
<svg height="512" id="svg548" version="1.1" width="512" xmlns="http://www.w3.org/2000/svg" xmlns:cc="http://creativecommons.org/ns#" xmlns:dc="http://purl.org/dc/elements/1.1/"
     xmlns:rdf="http://www.w3.org/1999/02/22-rdf-syntax-ns#">
 <metadata id="metadata3477">
  <rdf:RDF>
   <cc:Work rdf:about="">
  <dc:format>image/svg+xml</dc:format>
  <dc:type rdf:resource="http://purl.org/dc/dcmitype/StillImage"/>
   </cc:Work>
  </rdf:RDF>
 </metadata>
 <g fill-rule="evenodd" id="flag" stroke-width="1pt" transform="matrix(4.2666667,0,0,6.4,0,6e-6)">
  <rect fill="#00319c" height="80" id="rect551" width="40" x="0" y="0"/>
  <rect fill="#ffde00" height="80" id="rect552" width="40" x="40" y="0"/>
  <rect fill="#de2110" height="80" id="rect553" width="40" x="80" y="0"/>
 </g>
 <g id="g943" transform="matrix(.56007 0 0 .53518 9.8408 -55.998)">
  <path d="m173.62 690.94v63.779c0 3.544 0 7.087-3.543 7.087-3.544 0-7.087 7.087-7.087 10.63 0 7.087 3.543 10.63 7.087 10.63h31.889c3.544 0 7.087-3.543 7.087-10.63-0.228-3.723-3.543-10.63-7.087-10.63-3.543 0-3.543-3.543-3.543-7.087v-63.779"
        fill="#ff1900"
        fill-rule="evenodd" id="path905" stroke="#000" stroke-width="1pt" transform="matrix(.83373 -.55218 .55218 .83373 -26.753 225.15)"/>
  <path d="m177.17 696.26c0 24.461-9.5184 44.291-21.26 44.291-11.741 0-21.26-19.83-21.26-44.291s9.5184-44.291 21.26-44.291c11.741 0 21.26 19.83 21.26 44.291z" fill="#a77b3b" fill-rule="evenodd"
        id="path907" stroke="#000" stroke-width="3.125" transform="matrix(.76523 -.64375 .64375 .76523 -70.525 249)"/>
  <path d="m173.62 690.94v63.779c0 3.544 0 7.087-3.543 7.087-3.544 0-7.087 7.087-7.087 10.63 0 7.087 3.543 10.63 7.087 10.63h31.889c3.544 0 7.087-3.543 7.087-10.63-0.228-3.723-3.543-10.63-7.087-10.63-3.543 0-3.543-3.543-3.543-7.087v-63.779"
        fill="#ff1900"
        fill-rule="evenodd" id="path898" stroke="#000" stroke-width="1pt" transform="matrix(.87313 .48748 -.48748 .87313 541.92 -4.2137)"/>
  <path d="m421.65 701.58h-28.347c-0.937 0.938-8.998 54.066-17.716 74.409-10.63 24.803-42.465 46.69-42.465 46.69s19.073 6.045 24.748 10.003c1.411-0.415 31.835-7.086 35.378-46.063 3.544 38.977-21.205 56.693-21.205 56.693s35.433 10.63 35.433 35.433c0-24.803 35.434-35.433 35.434-35.433s-17.772-17.716-21.315-56.693c7.086 38.977 34.077 45.648 35.488 46.063 5.675-3.958 24.748-10.003 24.748-10.003s-31.835-21.887-42.465-46.69c-8.718-20.343-16.779-73.471-17.716-74.409z"
        fill="#a77b3b"
        fill-rule="evenodd" id="path895" stroke="#000" stroke-width="3.125" transform="translate(35.488 -56.693)"/>
  <path d="m336.61 467.7 53.15 17.716c17.716 0 35.433-17.697 35.433-35.414 0.589-39.414-14.174-53.168-17.717-53.168l7.087-7.087-10.63-10.63s3.554-18.382 38.976-17.698c35.421 0.685 35.433 17.717 35.433 35.433 0 17.717-17.716 17.717-17.716 53.15 0 17.717 17.716 35.433 35.433 35.433l53.15-17.716v177.16h-212.6v-177.18z"
        fill="#a77b3b"
        fill-rule="evenodd" id="path728" stroke="#000" stroke-width="3.125" transform="translate(.00019073 -.00018311)"/>
  <g fill="none" id="g853" stroke="#000" transform="translate(-.000038147 -.00018311)">
   <path d="m302.16 292.24 14.645 14.964 14.644-14.964 14.645 14.964 29.29-14.964 14.261 15.809 15.028-15.809 21.605 15.809 22.329-15.809 14.645 14.964 14.645-14.964" id="path732"
         stroke-width=".60302" transform="matrix(.24195 0 0 .71037 345 267.2)"/>
   <path d="m432.28 435.83-7.086 38.976" id="path827" stroke-width=".25" transform="translate(-.00015259 .00012207)"/>
   <path d="m435.83 435.83v38.976" id="path828" stroke-width=".25" transform="translate(-.00022888 .00012207)"/>
   <path d="m442.91 435.83v38.976" id="path829" stroke-width=".25"/>
   <path d="m450 435.83 3.543 38.976" id="path830" stroke-width=".25" transform="translate(0 .00012207)"/>
   <path d="m457.09 435.83 3.543 38.976" id="path831" stroke-width=".25"/>
  </g>
  <g id="g712" stroke="#000" stroke-width="3.125">
   <path d="m318.9 361.42c35.433 17.717 35.433 53.149 35.433 70.866-1.251 16.117 0 354.33 0 354.33s-2.306-20.022-17.717-35.433l-17.716-17.716-17.717-17.717c-12.951-11.774-17.716-35.433-17.716-53.15v-248.03s0-17.717 35.433-53.15z"
         fill="#a77b3b"
         fill-rule="evenodd" id="path691" transform="matrix(-1 0 0 1 620.08 .00027466)"/>
   <path d="m283.46 574.02c0.417 0 17.716-17.717 17.716-17.717l17.717 17.717s17.716-17.717 17.716-17.717l17.717 17.717" fill="none" id="path692" transform="matrix(-1 0 0 1 620.08 -141.73)"/>
   <path d="m283.46 574.02c0.417 0 17.716-17.717 17.716-17.717l17.717 17.717s17.716-17.717 17.716-17.717l17.717 17.717" fill="none" id="path693" transform="matrix(-1 0 0 -1 620.08 1024)"/>
   <path d="m283.46 574.02c0.417 0 17.716-17.717 17.716-17.717l17.717 17.717s17.716-17.717 17.716-17.717l17.717 17.717" fill="none" id="path694" transform="matrix(-1 0 0 1 620.08 -70.866)"/>
   <path d="m301.39 556.99-0.208 158.76" fill="none" id="path695" transform="matrix(-1 0 0 1.8971 620.08 -642.07)"/>
   <path d="m301.39 539.27-0.208 176.48" fill="none" id="path696" transform="matrix(-1 0 0 1.7027 602.57 -485.94)"/>
   <path d="m301.39 539.27-0.208 176.48" fill="none" id="path697" transform="matrix(-1 0 0 1.9074 584.85 -614.03)"/>
  </g>
  <g id="g720" stroke="#000" stroke-width="3.125">
   <path d="m318.9 361.42c35.433 17.717 35.433 53.149 35.433 70.866-1.251 16.117 0 354.33 0 354.33s-2.306-20.022-17.717-35.433l-17.716-17.716-17.717-17.717c-12.951-11.774-17.716-35.433-17.716-53.15v-248.03s0-17.717 35.433-53.15z"
         fill="#a77b3b"
         fill-rule="evenodd" id="path675" transform="translate(265.75 .00027466)"/>
   <path d="m283.46 574.02c0.417 0 17.716-17.717 17.716-17.717l17.717 17.717s17.716-17.717 17.716-17.717l17.717 17.717" fill="none" id="path676" transform="translate(265.75 -141.73)"/>
   <path d="m283.46 574.02c0.417 0 17.716-17.717 17.716-17.717l17.717 17.717s17.716-17.717 17.716-17.717l17.717 17.717" fill="none" id="path677" transform="matrix(1 0 0 -1 265.75 1024)"/>
   <path d="m283.46 574.02c0.417 0 17.716-17.717 17.716-17.717l17.717 17.717s17.716-17.717 17.716-17.717l17.717 17.717" fill="none" id="path678" transform="translate(265.75 -70.866)"/>
   <path d="m301.39 556.99-0.208 158.76" fill="none" id="path679" transform="matrix(1 0 0 1.8971 265.75 -642.07)"/>
   <path d="m301.39 539.27-0.208 176.48" fill="none" id="path680" transform="matrix(1 0 0 1.7027 283.26 -485.94)"/>
   <path d="m301.39 539.27-0.208 176.48" fill="none" id="path681" transform="matrix(1 0 0 1.9074 300.97 -614.03)"/>
  </g>
  <path d="m177.17 696.26c0 24.461-9.5184 44.291-21.26 44.291-11.741 0-21.26-19.83-21.26-44.291s9.5184-44.291 21.26-44.291c11.741 0 21.26 19.83 21.26 44.291z" fill="#a77b3b" fill-rule="evenodd"
        id="path903" stroke="#000" stroke-width="3.125" transform="matrix(.92308 .38461 -.38461 .92308 500.64 -32.163)"/>
  <g id="g860">
   <rect fill="#f00" fill-rule="evenodd" height="106.3" id="rect741" stroke-width="1pt" transform="translate(.00015259 -.00018311)" width="212.6" x="336.61" y="485.43"/>
   <path d="m336.61 591.73h212.6v53.15c0 35.433-53.15 35.433-106.3 70.866-53.15-35.433-106.3-35.433-106.3-70.866v-53.15z" fill="#564dff" fill-rule="evenodd" id="path742"
         stroke-width="2.5" transform="translate(.00086148 .00070190)"/>
   <path d="m336.61 485.43h212.6v159.45c0 35.433-53.15 35.433-106.3 70.866-53.149-35.433-106.3-35.433-106.3-70.866v-159.45z" fill="none" id="path740" stroke="#ff0"
         stroke-width="2.5" transform="translate(.0015814 .00032043)"/>
   <path d="m385.59 129.9s-50.618 55.447-50.618 108.6c0 53.149 53.149 70.866 53.149 70.866s-17.717 0-17.717 70.866c0 35.433 53.15 17.717 53.15 35.433 0 17.717-0.751 60.578 0 88.583 0 17.716-35.433 0-35.433 17.716 0 8.859 26.575 53.15 53.15 53.15 26.574 0 53.149-44.291 53.149-53.15 0-17.716-35.433 0-35.433-17.716v-88.583c0-17.716 53.15 0 53.15-35.433 0-70.866-17.717-70.866-17.717-70.866s53.15-17.717 53.15-70.866-50.619-108.6-50.619-108.6c0-0.001 28.473 73.163 28.473 108.6 0 17.717-13.287 53.149-48.72 53.149 0 0-8.961-17.716-17.717 0 0 0-10.189-17.716-17.716 0-2.598 6.115-7.207-17.716-17.717 0-4.465 4.697-7.984-17.716-17.717 0-17.716 0-53.148-17.716-53.149-53.149 0-35.433 32.902-108.6 32.902-108.6z"
         fill="#ff0"
         fill-rule="evenodd" id="path744" stroke="#000" stroke-width="3.0112" transform="matrix(0.7 0 0 .46956 134.02 431.52)"/>
   <path d="m382.68 248.03c-3.543 3.543 4.581 61.274 7.087 63.779 3.543 3.543 24.803 3.543 28.346 0 2.525-2.525 0-56.693-3.543-60.236-3.543-3.544-29.384-6.049-31.89-3.543z" fill="#ff0"
         fill-rule="evenodd" id="path746" stroke="#000" stroke-width="3.0112" transform="matrix(0.7 0 0 .46956 136.69 524.92)"/>
   <path d="m382.68 248.03c-3.543 3.543 4.581 61.274 7.087 63.779 3.543 3.543 24.803 3.543 28.346 0 2.525-2.525 0-56.693-3.543-60.236-3.543-3.544-29.384-6.049-31.89-3.543z" fill="#ff0"
         fill-rule="evenodd" id="path747" stroke="#000" stroke-width="3.0112" transform="matrix(-0.7 0 0 .46956 749.14 524.92)"/>
   <path d="m414.57 228.54c0 8.8061-7.1388 15.945-15.945 15.945-8.8061 0-15.945-7.1388-15.945-15.945 0-8.8061 7.1388-15.945 15.945-15.945 8.8061 0 15.945 7.1388 15.945 15.945z" fill="#ff0"
         fill-rule="evenodd" id="path748" stroke="#000" stroke-width="3.0112" transform="matrix(.80459 0 0 .58536 96.528 497.79)"/>
   <path d="m414.57 228.54c0 8.8061-7.1388 15.945-15.945 15.945-8.8061 0-15.945-7.1388-15.945-15.945 0-8.8061 7.1388-15.945 15.945-15.945 8.8061 0 15.945 7.1388 15.945 15.945z" fill="#ff0"
         fill-rule="evenodd" id="path749" stroke="#000" stroke-width="3.0112" transform="matrix(.80460 0 0 .58537 147.84 497.79)"/>
   <path d="m414.57 228.54c0 8.8061-7.1388 15.945-15.945 15.945-8.8061 0-15.945-7.1388-15.945-15.945 0-8.8061 7.1388-15.945 15.945-15.945 8.8061 0 15.945 7.1388 15.945 15.945z" fill-rule="evenodd"
         id="path750" stroke-width="1pt" transform="matrix(.38889 0 0 .26087 304.02 626.15)"/>
   <path d="m414.57 228.54c0 8.8061-7.1388 15.945-15.945 15.945-8.8061 0-15.945-7.1388-15.945-15.945 0-8.8061 7.1388-15.945 15.945-15.945 8.8061 0 15.945 7.1388 15.945 15.945z" fill-rule="evenodd"
         id="path751" stroke-width="1pt" transform="matrix(.38889 0 0 .26087 271.77 626.15)"/>
   <polygon d="m 439.37008,549.92126 -7.78323,-10.26471 -12.76183,1.75467 1.75467,-12.76183 -10.26472,-7.78324 10.26472,-7.78324 -1.75467,-12.76183 12.76183,1.75467 7.78324,-10.26471 7.78323,10.26471 12.76184,-1.75467 -1.75467,12.76183 10.26471,7.78324 -10.26471,7.78324 1.75466,12.76183 -12.76183,-1.75467 z"
            fill="#ff0"
            fill-rule="evenodd" id="polygon785" points="439.37 549.92 431.59 539.66 418.82 541.41 420.58 528.65 410.32 520.87 420.58 513.08 418.82 500.32 431.59 502.08 439.37 491.81 447.15 502.08 459.92 500.32 458.16 513.08 468.42 520.87 458.16 528.65 459.92 541.41 447.15 539.66"
            stroke="#000"
            stroke-width="1pt" transform="matrix(.97561 0 0 .97561 14.26 16.248)"/>
   <path d="m496.06 591.73l21.26 10.63 21.26-10.63-21.26-10.63-21.26 10.63z" fill="#ff0" fill-rule="evenodd" id="path786" stroke="#000" stroke-width="1pt" transform="translate(.00015259 -.00018311)"/>
   <path d="m496.06 591.73l21.26 10.63 21.26-10.63-21.26-10.63-21.26 10.63z" fill="#ff0" fill-rule="evenodd" id="path788" stroke="#000" stroke-width="1pt" transform="translate(-152.36 .00016785)"/>
   <path d="m535.04 659.06c-3.543-7.086-14.173-10.63-21.259-10.63-7.087 0-14.174 0-21.26 10.63 0-14.173 10.502-21.26 21.26-21.26 10.756 0 21.259 10.503 21.259 21.26z" fill="#ff0" fill-rule="evenodd"
         id="path790" stroke="#000" stroke-width="1pt" transform="matrix(.86717 -.49801 .49801 .86717 -263.15 350.11)"/>
   <path d="m386.22 651.97c0 3.9138-3.1728 7.0866-7.0866 7.0866s-7.0866-3.1728-7.0866-7.0866 3.1728-7.0866 7.0866-7.0866 7.0866 3.1728 7.0866 7.0866z" fill="#ff0" fill-rule="evenodd"
         id="path792" stroke="#000" stroke-width="1pt" transform="translate(-3.5432 -17.717)"/>
   <path d="m386.22 651.97c0 3.9138-3.1728 7.0866-7.0866 7.0866s-7.0866-3.1728-7.0866-7.0866 3.1728-7.0866 7.0866-7.0866 7.0866 3.1728 7.0866 7.0866z" fill="#ff0" fill-rule="evenodd"
         id="path793" stroke="#000" stroke-width="1pt" transform="translate(-10.63 7.0864)"/>
   <path d="m386.22 651.97c0 3.9138-3.1728 7.0866-7.0866 7.0866s-7.0866-3.1728-7.0866-7.0866 3.1728-7.0866 7.0866-7.0866 7.0866 3.1728 7.0866 7.0866z" fill="#ff0" fill-rule="evenodd"
         id="path795" stroke="#000" stroke-width="1pt" transform="translate(-14.173 -7.0869)"/>
   <path d="m386.22 651.97c0 3.9138-3.1728 7.0866-7.0866 7.0866s-7.0866-3.1728-7.0866-7.0866 3.1728-7.0866 7.0866-7.0866 7.0866 3.1728 7.0866 7.0866z" fill="#ff0" fill-rule="evenodd"
         id="path796" stroke="#000" stroke-width="1pt" transform="translate(3.5435 7.0864)"/>
   <path d="m386.22 651.97c0 3.9138-3.1728 7.0866-7.0866 7.0866s-7.0866-3.1728-7.0866-7.0866 3.1728-7.0866 7.0866-7.0866 7.0866 3.1728 7.0866 7.0866z" fill="#ff0" fill-rule="evenodd"
         id="path797" stroke="#000" stroke-width="1pt" transform="translate(7.0868 -7.0869)"/>
   <path d="m386.22 651.97c0 3.9138-3.1728 7.0866-7.0866 7.0866s-7.0866-3.1728-7.0866-7.0866 3.1728-7.0866 7.0866-7.0866 7.0866 3.1728 7.0866 7.0866z" fill="#ff0" fill-rule="evenodd"
         id="path791" stroke="#000" stroke-width="1pt" transform="translate(-3.5431 -3.5435)"/>
  </g>
  <g fill-rule="evenodd" id="g881">
   <path d="m389.76 386.22c-15.647 0-17.716 1.772-24.803 3.544 0-4.89 17.424-10.63 33.071-10.63 0 3.543-4.134 7.087-8.268 7.086z" fill="#da4500" id="path822"
         stroke-width="1pt" transform="matrix(1.1429 0 0 1.6667 -36.784 -242.13)"/>
   <path d="m428.74 386.22c0 3.9138-3.1728 7.0866-7.0866 7.0866s-7.0866-3.1728-7.0866-7.0866 3.1728-7.0866 7.0866-7.0866 7.0866 3.1728 7.0866 7.0866z" fill="#cac9c7"
         id="path823" transform="translate(7.0866 -3.5433)"/>
   <path d="m361.42 357.87v10.63h17.717v53.15h10.63v-53.15h17.716v-10.63h-17.716v-14.173h-10.63v14.173h-17.717z" fill="#ff0" id="path825" stroke="#000" stroke-width="1pt"/>
   <path d="m396.85 387.11c-15.647 0-24.803 0.885-31.89 2.657 0-4.89 9.156-10.63 24.803-10.63 3.543 0 7.087 5.315 7.087 7.973z" fill="#da4500" id="path821"
         stroke-width="1pt" transform="matrix(1.3333 0 0 2.2222 -111.03 -470.46)"/>
  </g>
  <g fill-rule="evenodd" id="g920">
   <path d="m67.323 612.99c-14.173-14.17-16.634-21.36 3.543-10.1l283.75 247.5-3.366 6.968-283.93-244.37z" fill="#008500" id="path908" stroke="#000"
         stroke-width=".875" transform="matrix(.56340 .45036 -.20424 .35982 321.13 327.02)"/>
   <path d="m106.3 825.59c61.099-21.171 49.646-102.47 42.618-103.04-7.028-0.572-33.42 18.668-36.963 36.385-7.086-28.346-23.102-54.578-32.342-51.546-13.861 3.032 2.4664 47.491-4.6203 54.578-7.0866 3.543-39.117-21.736-46.203-18.193-7.0866 3.544 18.481 100.06 77.511 81.813z"
         fill="#008f00"
         id="path912" transform="matrix(.13171 -.18019 .3274 .23930 23.692 542.15)"/>
   <path d="m106.3 825.59c61.099-21.171 49.646-102.47 42.618-103.04-7.028-0.572-33.42 18.668-36.963 36.385-7.086-28.346-23.102-54.578-32.342-51.546-13.861 3.032 2.4664 47.491-4.6203 54.578-7.0866 3.543-39.117-21.736-46.203-18.193-7.0866 3.544 18.481 100.06 77.511 81.813z"
         fill="#008f00"
         id="path913" transform="matrix(.13171 -.18019 .3274 .23930 -4.4099 495.32)"/>
   <path d="m106.3 825.59c61.099-21.171 49.646-102.47 42.618-103.04-7.028-0.572-33.42 18.668-36.963 36.385-7.086-28.346-23.102-54.578-32.342-51.546-13.861 3.032 2.4664 47.491-4.6203 54.578-7.0866 3.543-39.117-21.736-46.203-18.193-7.0866 3.544 18.481 100.06 77.511 81.813z"
         fill="#008f00"
         id="path914" transform="matrix(.13171 -.18019 .3274 .23930 -25.914 452.8)"/>
   <path d="m106.3 825.59c61.099-21.171 49.646-102.47 42.618-103.04-7.028-0.572-33.42 18.668-36.963 36.385-7.086-28.346-23.102-54.578-32.342-51.546-13.861 3.032 2.4664 47.491-4.6203 54.578-7.0866 3.543-39.117-21.736-46.203-18.193-7.0866 3.544 18.481 100.06 77.511 81.813z"
         fill="#008f00"
         id="path915" transform="matrix(.13171 -.18019 .3274 .23930 -47.174 406.73)"/>
   <path d="m106.3 825.59c61.099-21.171 49.646-102.47 42.618-103.04-7.028-0.572-33.42 18.668-36.963 36.385-7.086-28.346-23.102-54.578-32.342-51.546-13.861 3.032 2.4664 47.491-4.6203 54.578-7.0866 3.543-39.117-21.736-46.203-18.193-7.0866 3.544 18.481 100.06 77.511 81.813z"
         fill="#008f00"
         id="path916" transform="matrix(.22320 -.00073722 .0013390 .40553 219.6 248.33)"/>
   <path d="m106.3 825.59c61.099-21.171 49.646-102.47 42.618-103.04-7.028-0.572-33.42 18.668-36.963 36.385-7.086-28.346-23.102-54.578-32.342-51.546-13.861 3.032 2.4664 47.491-4.6203 54.578-7.0866 3.543-39.117-21.736-46.203-18.193-7.0866 3.544 18.481 100.06 77.511 81.813z"
         fill="#008f00"
         id="path917" transform="matrix(.21063 .073823 -.13413 .38271 352.49 299.69)"/>
   <path d="m106.3 825.59c61.099-21.171 49.646-102.47 42.618-103.04-7.028-0.572-33.42 18.668-36.963 36.385-7.086-28.346-23.102-54.578-32.342-51.546-13.861 3.032 2.4664 47.491-4.6203 54.578-7.0866 3.543-39.117-21.736-46.203-18.193-7.0866 3.544 18.481 100.06 77.511 81.813z"
         fill="#008f00"
         id="path918" transform="matrix(.22236 .019264 -.035001 .40402 292.95 329.27)"/>
   <path d="m106.3 825.59c61.099-21.171 49.646-102.47 42.618-103.04-7.028-0.572-33.42 18.668-36.963 36.385-7.086-28.346-23.102-54.578-32.342-51.546-13.861 3.032 2.4664 47.491-4.6203 54.578-7.0866 3.543-39.117-21.736-46.203-18.193-7.0866 3.544 18.481 100.06 77.511 81.813z"
         fill="#008f00"
         id="path919" transform="matrix(.21927 .041660 -.075693 .39841 352.36 385.54)"/>
  </g>
  <path d="m209.06 775.98c0 7.8277-10.312 14.173-23.031 14.173-12.72 0-23.031-6.3456-23.031-14.173 0-7.8277 10.312-14.173 23.031-14.173 12.72 0 23.031 6.3456 23.031 14.173z" fill="#ff1900"
        fill-rule="evenodd" id="path899" stroke="#000" stroke-width="1pt" transform="matrix(.87313 .48748 -.48748 .87313 541.92 -4.2137)"/>
  <g fill="#ff0" fill-rule="evenodd" id="g935" stroke="#000" transform="matrix(.72399 .23860 -0.265 .71579 631.68 213.1)">
   <path d="m155.91 414.57v-7.087h7.086v-7.086h7.087v7.086h7.086v7.087h-7.086v17.716h-7.087v-17.716h-7.086z" id="path934" stroke-width=".625" transform="translate(0 -.000030518)"/>
   <rect height="205.51" id="rect930" stroke-width=".63046" width="7.0866" x="162.99" y="474.8"/>
   <rect height="56.693" id="rect931" stroke-width=".625" width="14.173" x="159.45" y="676.77"/>
   <path d="m155.91 439.37h21.259c14.174 0-3.543 38.976-3.543 38.976h-14.173s-17.717-38.976-3.543-38.976z" id="path932" stroke-width=".625"/>
   <path d="m173.62 434.06c0 2.9354-3.1728 5.315-7.0866 5.315s-7.0866-2.3796-7.0866-5.315 3.1728-5.315 7.0866-5.315 7.0866 2.3796 7.0866 5.315z" id="path933" stroke-width=".625"/>
  </g>
  <path d="m209.06 775.98c0 7.8277-10.312 14.173-23.031 14.173-12.72 0-23.031-6.3456-23.031-14.173 0-7.8277 10.312-14.173 23.031-14.173 12.72 0 23.031 6.3456 23.031 14.173z" fill="#ff1900"
        fill-rule="evenodd" id="path906" stroke="#000" stroke-width="1pt" transform="matrix(.83373 -.55218 .55218 .83373 -26.753 225.15)"/>
 </g>
</svg>
