<?xml version="1.0" encoding="UTF-8" standalone="no"?>
<svg height="512" id="svg2" inkscape:version="0.48.4 r9939" sodipodi:docname="mm.svg" version="1.1" viewBox="0 0 5.12 5.12"
     width="512" xmlns="http://www.w3.org/2000/svg" xmlns:cc="http://creativecommons.org/ns#" xmlns:dc="http://purl.org/dc/elements/1.1/" xmlns:inkscape="http://www.inkscape.org/namespaces/inkscape" xmlns:rdf="http://www.w3.org/1999/02/22-rdf-syntax-ns#" xmlns:sodipodi="http://sodipodi.sourceforge.net/DTD/sodipodi-0.dtd" xmlns:xlink="http://www.w3.org/1999/xlink">
  <metadata id="metadata28">
  <rdf:RDF>
    <cc:Work rdf:about="">
    <dc:format>image/svg+xml</dc:format>
    <dc:type rdf:resource="http://purl.org/dc/dcmitype/StillImage"/>
    <dc:title></dc:title>
    </cc:Work>
  </rdf:RDF>
  </metadata>
  <sodipodi:namedview bordercolor="#666666" borderopacity="1" gridtolerance="10" guidetolerance="10" id="namedview26" inkscape:current-layer="svg2" inkscape:cx="256" inkscape:cy="256"
                      inkscape:pageopacity="0" inkscape:pageshadow="2" inkscape:window-height="800" inkscape:window-maximized="0" inkscape:window-width="1280" inkscape:window-x="0" inkscape:window-y="0" inkscape:zoom="1.1289062"
                      objecttolerance="10" pagecolor="#ffffff" showgrid="false"/>
  <defs id="defs4">
  <polygon id="pt" points="0.16245985,0 -0.16245985,0 0,-0.5 " style="fill:#ffffff" transform="scale(8.844,8.844)"/>
  <g id="star">
    <use height="12" id="use8" transform="matrix(-0.80901699,-0.58778525,0.58778525,-0.80901699,0,0)" width="18" x="0" xlink:href="#pt" y="0"/>
    <use height="12" id="use10" transform="matrix(0.30901699,-0.95105652,0.95105652,0.30901699,0,0)" width="18" x="0" xlink:href="#pt" y="0"/>
    <use height="12" id="use12" width="18" x="0" xlink:href="#pt" y="0"/>
    <use height="12" id="use14" transform="matrix(0.30901699,0.95105652,-0.95105652,0.30901699,0,0)" width="18" x="0" xlink:href="#pt" y="0"/>
    <use height="12" id="use16" transform="matrix(-0.80901699,0.58778525,-0.58778525,-0.80901699,0,0)" width="18" x="0" xlink:href="#pt" y="0"/>
  </g>
  <clipPath clipPathUnits="userSpaceOnUse" id="clipPath3013">
    <rect height="12" id="rect3015" style="stroke:none" width="16" x="1" y="-7.1999998"/>
  </clipPath>
  <clipPath clipPathUnits="userSpaceOnUse" id="clipPath3042">
    <rect height="11.999999" id="rect3044" style="stroke:none" width="11.999999" x="2.9921875" y="-7.1999998"/>
  </clipPath>
  </defs>
  <g clip-path="url(#clipPath3042)" id="flag" inkscape:label="#g3005" transform="matrix(0.42666668,0,0,0.42666668,-1.2766667,3.072)">
  <rect height="6" id="rect18" style="fill:#fecb00" width="18" x="0" y="-7.1999998"/>
  <rect height="6" id="rect20" style="fill:#ea2839" width="18" x="0" y="-1.2"/>
  <rect height="4" id="rect22" style="fill:#34b233" width="18" x="0" y="-3.2"/>
  <use height="12" id="use24" transform="translate(0,-7.2)" width="18" x="9" xlink:href="#star" y="6.4219999"/>
  </g>
</svg>
