<svg height="512" width="512" xmlns="http://www.w3.org/2000/svg">
    <path d="M0 0h512v512H0z" fill="#c4272f"/>
    <path d="M170.667 0h170.667v512H170.667z" fill="#015197"/>
    <circle cx="85.333" cy="215.467" fill="#f9cf02" r="23.467"/>
    <circle cx="85.333" cy="204.8" fill="#c4272f" r="25.6"/>
    <circle cx="85.333" cy="209.067" fill="#f9cf02" r="17.067"/>
    <path d="M74.667 177.067a10.667 10.667 0 0 0 21.333 0c0-4.267-2.667-4.8-2.667-6.4 0-1.6 1.6-3.734-1.6-6.4 1.6 2.666-1.066 3.2-1.066 5.866 0 2.667 1.066 2.667 1.066 4.8M38.4 243.2v102.4h21.333V243.2zm72.533 0v102.4h21.334V243.2zM64 260.267v8.533h42.667v-8.533zM64 320v8.533h42.667V320zm0-76.8h42.667L85.333 256zm0 89.6h42.667l-21.334 12.8z"
          fill="#f9cf02"/>
    <g fill="#f9cf02" stroke="#c4272f" stroke-width="24" transform="matrix(.10667 0 0 .10667 0 128)">
        <circle cx="800" cy="1560" r="212"/>
        <path d="M800 1348a106 106 0 0 1 0 212 106 106 0 0 0 0 212" fill="none"/>
    </g>
    <g fill="#c4272f" transform="matrix(.10667 0 0 .10667 0 128)">
        <circle cx="800" cy="1454" r="40"/>
        <circle cx="800" cy="1666" r="40"/>
    </g>
</svg>
