<?xml version="1.0" encoding="UTF-8" standalone="no"?>
<svg height="512" id="svg378" version="1" width="512" x="0" xmlns="http://www.w3.org/2000/svg" xmlns:cc="http://creativecommons.org/ns#" xmlns:dc="http://purl.org/dc/elements/1.1/" xmlns:rdf="http://www.w3.org/1999/02/22-rdf-syntax-ns#"
     y="0">
 <metadata id="metadata3847">
  <rdf:RDF>
   <cc:Work rdf:about="">
  <dc:format>image/svg+xml</dc:format>
  <dc:type rdf:resource="http://purl.org/dc/dcmitype/StillImage"/>
   </cc:Work>
  </rdf:RDF>
 </metadata>
 <defs id="defs380">
  <clipPath clipPathUnits="userSpaceOnUse" id="clipPath6009">
   <rect fill-opacity="0.67" height="708.66" id="rect6011" width="708.66" x="179.71" y=".0000032271"/>
  </clipPath>
 </defs>
 <g clip-path="url(#clipPath6009)" fill-rule="evenodd" id="flag" stroke-width="1pt" transform="matrix(.72249 0 0 .72249 -129.84 -.0000023316)">
  <rect fill="#f41408" height="708.66" id="rect171" width="1063" x="0" y="0"/>
  <rect fill="#21873b" height="236.22" id="rect256" transform="translate(0 .00028121)" width="1063" x="0" y="472.44"/>
  <rect height="236.22" id="rect255" width="1063" x="0" y="0"/>
  <path d="m259.71 214.67c61.43-149.6 232.71-221.16 382.31-159.73 75.34 30.936 128.71 84.28 159.68 159.62l-541.99 0.112z" fill="#f31509" id="path386"
        transform="matrix(.50262 0 0 .50262 270.88 106.14)"/>
  <path d="m537.98 92.591c-5.966-31.997-7.592-67.247-7.05-73.212 0.542-5.9654 3.796-7.0501 6.507-7.0501 2.712 0 6.508 2.7116 6.508 7.05 0 8.1348 0.001 41.216-5.965 73.213z" fill="#f31509"
        id="path353" transform="matrix(.25573 -.96675 .96675 .25573 138.38 720.17)"/>
  <path d="m537.98 92.591c-5.966-31.997-7.592-67.247-7.05-73.212 0.542-5.9654 3.796-7.0501 6.507-7.0501 2.712 0 6.508 2.7116 6.508 7.05 0 8.1348 0.001 41.216-5.965 73.213z" fill="#f31509"
        id="path354" transform="matrix(.99999 .0044170 -.0044170 .99999 .41417 -2.3438)"/>
  <path d="m537.98 92.591c-5.966-31.997-7.592-67.247-7.05-73.212 0.542-5.9654 3.796-7.0501 6.507-7.0501 2.712 0 6.508 2.7116 6.508 7.05 0 8.1348 0.001 41.216-5.965 73.213z" fill="#f31509"
        id="path355" transform="matrix(.99593 .090083 -.090083 .99593 26.501 -47.312)"/>
  <path d="m537.98 92.591c-5.966-31.997-7.592-67.247-7.05-73.212 0.542-5.9654 3.796-7.0501 6.507-7.0501 2.712 0 6.508 2.7116 6.508 7.05 0 8.1348 0.001 41.216-5.965 73.213z" fill="#f31509"
        id="path356" transform="matrix(.98514 .17173 -.17173 .98514 54.338 -88.274)"/>
  <path d="m537.98 92.591c-5.966-31.997-7.592-67.247-7.05-73.212 0.542-5.9654 3.796-7.0501 6.507-7.0501 2.712 0 6.508 2.7116 6.508 7.05 0 8.1348 0.001 41.216-5.965 73.213z" fill="#f31509"
        id="path357" transform="matrix(.96622 .25773 -.25773 .96622 87.724 -129.38)"/>
  <path d="m537.98 92.591c-5.966-31.997-7.592-67.247-7.05-73.212 0.542-5.9654 3.796-7.0501 6.507-7.0501 2.712 0 6.508 2.7116 6.508 7.05 0 8.1348 0.001 41.216-5.965 73.213z" fill="#f31509"
        id="path358" transform="matrix(.93952 .34248 -.34248 .93952 124.94 -167.72)"/>
  <path d="m537.98 92.591c-5.966-31.997-7.592-67.247-7.05-73.212 0.542-5.9654 3.796-7.0501 6.507-7.0501 2.712 0 6.508 2.7116 6.508 7.05 0 8.1348 0.001 41.216-5.965 73.213z" fill="#f31509"
        id="path359" transform="matrix(.90680 .42155 -.42155 .90680 163.87 -201.38)"/>
  <path d="m537.98 92.591c-5.966-31.997-7.592-67.247-7.05-73.212 0.542-5.9654 3.796-7.0501 6.507-7.0501 2.712 0 6.508 2.7116 6.508 7.05 0 8.1348 0.001 41.216-5.965 73.213z" fill="#f31509"
        id="path360" transform="matrix(.86641 .49933 -.49933 .86641 206.57 -232.27)"/>
  <path d="m537.98 92.591c-5.966-31.997-7.592-67.247-7.05-73.212 0.542-5.9654 3.796-7.0501 6.507-7.0501 2.712 0 6.508 2.7116 6.508 7.05 0 8.1348 0.001 41.216-5.965 73.213z" fill="#f31509"
        id="path361" transform="matrix(.81960 .57294 -.57294 .81960 251.6 -259.19)"/>
  <path d="m537.98 92.591c-5.966-31.997-7.592-67.247-7.05-73.212 0.542-5.9654 3.796-7.0501 6.507-7.0501 2.712 0 6.508 2.7116 6.508 7.05 0 8.1348 0.001 41.216-5.965 73.213z" fill="#f31509"
        id="path362" transform="matrix(.76646 .64229 -.64229 .76646 298.87 -282.12)"/>
  <path d="m537.98 92.591c-5.966-31.997-7.592-67.247-7.05-73.212 0.542-5.9654 3.796-7.0501 6.507-7.0501 2.712 0 6.508 2.7116 6.508 7.05 0 8.1348 0.001 41.216-5.965 73.213z" fill="#f31509"
        id="path363" transform="matrix(.70734 .70687 -.70687 .70734 348.08 -300.87)"/>
  <path d="m537.98 92.591c-5.966-31.997-7.592-67.247-7.05-73.212 0.542-5.9654 3.796-7.0501 6.507-7.0501 2.712 0 6.508 2.7116 6.508 7.05 0 8.1348 0.001 41.216-5.965 73.213z" fill="#f31509"
        id="path364" transform="matrix(.64260 .76620 -.76620 .64260 398.88 -315.27)"/>
  <path d="m537.98 92.591c-5.966-31.997-7.592-67.247-7.05-73.212 0.542-5.9654 3.796-7.0501 6.507-7.0501 2.712 0 6.508 2.7116 6.508 7.05 0 8.1348 0.001 41.216-5.965 73.213z" fill="#f31509"
        id="path365" transform="matrix(.5762 .81731 -.81731 .5762 448.36 -324.81)"/>
  <path d="m537.98 92.591c-5.966-31.997-7.592-67.247-7.05-73.212 0.542-5.9654 3.796-7.0501 6.507-7.0501 2.712 0 6.508 2.7116 6.508 7.05 0 8.1348 0.001 41.216-5.965 73.213z" fill="#f31509"
        id="path366" transform="matrix(.50416 .86361 -.86361 .50416 499.57 -330.25)"/>
  <path d="m537.98 92.591c-5.966-31.997-7.592-67.247-7.05-73.212 0.542-5.9654 3.796-7.0501 6.507-7.0501 2.712 0 6.508 2.7116 6.508 7.05 0 8.1348 0.001 41.216-5.965 73.213z" fill="#f31509"
        id="path367" transform="matrix(.42204 .90658 -.90658 .42204 555.3 -331.17)"/>
  <path d="m537.98 92.591c-5.966-31.997-7.592-67.247-7.05-73.212 0.542-5.9654 3.796-7.0501 6.507-7.0501 2.712 0 6.508 2.7116 6.508 7.05 0 8.1348 0.001 41.216-5.965 73.213z" fill="#f31509"
        id="path368" transform="matrix(.34272 .93944 -.93944 .34272 606.79 -327.42)"/>
  <path d="m537.98 92.591c-5.966-31.997-7.592-67.247-7.05-73.212 0.542-5.9654 3.796-7.0501 6.507-7.0501 2.712 0 6.508 2.7116 6.508 7.05 0 8.1348 0.001 41.216-5.965 73.213z" fill="#f31509"
        id="path369" transform="matrix(.25861 .96598 -.96598 .25861 659.16 -318.98)"/>
  <path d="m537.98 92.591c-5.966-31.997-7.592-67.247-7.05-73.212 0.542-5.9654 3.796-7.0501 6.507-7.0501 2.712 0 6.508 2.7116 6.508 7.05 0 8.1348 0.001 41.216-5.965 73.213z" fill="#f31509"
        id="path370" transform="matrix(.99611 -.088093 .088093 .99611 -21.69 48.389)"/>
  <path d="m537.98 92.591c-5.966-31.997-7.592-67.247-7.05-73.212 0.542-5.9654 3.796-7.0501 6.507-7.0501 2.712 0 6.508 2.7116 6.508 7.05 0 8.1348 0.001 41.216-5.965 73.213z" fill="#f31509"
        id="path371" transform="matrix(.98462 -.17471 .17471 .98462 -38.894 98.036)"/>
  <path d="m537.98 92.591c-5.966-31.997-7.592-67.247-7.05-73.212 0.542-5.9654 3.796-7.0501 6.507-7.0501 2.712 0 6.508 2.7116 6.508 7.05 0 8.1348 0.001 41.216-5.965 73.213z" fill="#f31509"
        id="path372" transform="matrix(.96540 -.26078 .26078 .96540 -51.798 149.48)"/>
  <path d="m537.98 92.591c-5.966-31.997-7.592-67.247-7.05-73.212 0.542-5.9654 3.796-7.0501 6.507-7.0501 2.712 0 6.508 2.7116 6.508 7.05 0 8.1348 0.001 41.216-5.965 73.213z" fill="#f31509"
        id="path373" transform="matrix(.93977 -.34181 .34181 .93977 -59.897 199.94)"/>
  <path d="m537.98 92.591c-5.966-31.997-7.592-67.247-7.05-73.212 0.542-5.9654 3.796-7.0501 6.507-7.0501 2.712 0 6.508 2.7116 6.508 7.05 0 8.1348 0.001 41.216-5.965 73.213z" fill="#f31509"
        id="path374" transform="matrix(.90704 -.42105 .42105 .90704 -63.697 251.36)"/>
  <path d="m537.98 92.591c-5.966-31.997-7.592-67.247-7.05-73.212 0.542-5.9654 3.796-7.0501 6.507-7.0501 2.712 0 6.508 2.7116 6.508 7.05 0 8.1348 0.001 41.216-5.965 73.213z" fill="#f31509"
        id="path375" transform="matrix(.86543 -.50104 .50104 .86543 -62.926 305.58)"/>
  <path d="m537.98 92.591c-5.966-31.997-7.592-67.247-7.05-73.212 0.542-5.9654 3.796-7.0501 6.507-7.0501 2.712 0 6.508 2.7116 6.508 7.05 0 8.1348 0.001 41.216-5.965 73.213z" fill="#f31509"
        id="path376" transform="matrix(.81895 -.57387 .57387 .81895 -57.608 357.26)"/>
  <path d="m537.98 92.591c-5.966-31.997-7.592-67.247-7.05-73.212 0.542-5.9654 3.796-7.0501 6.507-7.0501 2.712 0 6.508 2.7116 6.508 7.05 0 8.1348 0.001 41.216-5.965 73.213z" fill="#f31509"
        id="path377" transform="matrix(.76699 -.64166 .64166 .76699 -48.051 407.66)"/>
  <path d="m537.98 92.591c-5.966-31.997-7.592-67.247-7.05-73.212 0.542-5.9654 3.796-7.0501 6.507-7.0501 2.712 0 6.508 2.7116 6.508 7.05 0 8.1348 0.001 41.216-5.965 73.213z" fill="#f31509"
        id="path378" transform="matrix(.70672 -.70749 .70749 .70672 -33.508 459.26)"/>
  <path d="m537.98 92.591c-5.966-31.997-7.592-67.247-7.05-73.212 0.542-5.9654 3.796-7.0501 6.507-7.0501 2.712 0 6.508 2.7116 6.508 7.05 0 8.1348 0.001 41.216-5.965 73.213z" fill="#f31509"
        id="path379" transform="matrix(.64494 -.76423 .76423 .64494 -15.696 506.38)"/>
  <path d="m537.98 92.591c-5.966-31.997-7.592-67.247-7.05-73.212 0.542-5.9654 3.796-7.0501 6.507-7.0501 2.712 0 6.508 2.7116 6.508 7.05 0 8.1348 0.001 41.216-5.965 73.213z" fill="#f31509"
        id="path380" transform="matrix(.57445 -.81854 .81854 .57445 7.4468 554.56)"/>
  <path d="m537.98 92.591c-5.966-31.997-7.592-67.247-7.05-73.212 0.542-5.9654 3.796-7.0501 6.507-7.0501 2.712 0 6.508 2.7116 6.508 7.05 0 8.1348 0.001 41.216-5.965 73.213z" fill="#f31509"
        id="path381" transform="matrix(.49823 -.86705 .86705 .49823 35.23 601.18)"/>
  <path d="m537.98 92.591c-5.966-31.997-7.592-67.247-7.05-73.212 0.542-5.9654 3.796-7.0501 6.507-7.0501 2.712 0 6.508 2.7116 6.508 7.05 0 8.1348 0.001 41.216-5.965 73.213z" fill="#f31509"
        id="path382" transform="matrix(.42077 -.90717 .90717 .42077 65.94 643.62)"/>
  <path d="m537.98 92.591c-5.966-31.997-7.592-67.247-7.05-73.212 0.542-5.9654 3.796-7.0501 6.507-7.0501 2.712 0 6.508 2.7116 6.508 7.05 0 8.1348 0.001 41.216-5.965 73.213z" fill="#f31509"
        id="path383" transform="matrix(.34326 -.93924 .93924 .34326 98.857 681.77)"/>
  <path d="m537.98 92.591c-5.966-31.997-7.592-67.247-7.05-73.212 0.542-5.9654 3.796-7.0501 6.507-7.0501 2.712 0 6.508 2.7116 6.508 7.05 0 8.1348 0.001 41.216-5.965 73.213z" fill="#f31509"
        id="path384" transform="matrix(.25573 -.96675 .96675 .25573 138.38 720.17)"/>
  <rect height="19.174" id="rect385" width="527.66" x="275.33" y="214.74"/>
 </g>
</svg>
