<?xml version="1.0" encoding="UTF-8" standalone="no"?>
<svg height="512" id="svg1646" version="1.1" width="512" xmlns="http://www.w3.org/2000/svg" xmlns:cc="http://creativecommons.org/ns#" xmlns:dc="http://purl.org/dc/elements/1.1/"
     xmlns:rdf="http://www.w3.org/1999/02/22-rdf-syntax-ns#">
 <metadata id="metadata3564">
  <rdf:RDF>
   <cc:Work rdf:about="">
  <dc:format>image/svg+xml</dc:format>
  <dc:type rdf:resource="http://purl.org/dc/dcmitype/StillImage"/>
   </cc:Work>
  </rdf:RDF>
 </metadata>
 <defs id="defs1648">
  <clipPath clipPathUnits="userSpaceOnUse" id="clipPath10940">
   <rect fill-opacity="0.67" height="512" id="rect10942" width="512" x="0" y="0"/>
  </clipPath>
 </defs>
 <g clip-path="url(#clipPath10940)" fill-rule="evenodd" id="flag">
  <rect fill="#fff" height="595.94" id="rect555" stroke-width="1pt" width="592.45" x="-26.003" y="-24.954"/>
  <rect fill="#db0000" height="275.22" id="rect1649" stroke-width="1pt" width="312.09" x="255.34" y="-20.417"/>
  <rect fill="#0000ab" height="316.17" id="rect1650" stroke-width="1pt" width="309.82" x="-54.446" y="254.81"/>
  <path d="m178.98 181.59-46.477-29.211-46.249 29.498 17.201-47.936-46.164-29.6 57.113-0.41269 17.715-47.79 18.094 47.68 57.113 0.0629-45.927 29.879 17.581 47.83z" fill="#0000ab" id="path205"
        stroke-width=".11287"/>
  <path d="m435.24 449.04-46.477-29.211-46.249 29.498 17.201-47.936-46.164-29.6 57.113-0.4127 17.715-47.79 18.094 47.68 57.113 0.0629-45.927 29.879 17.581 47.83z" fill="#d80000" id="path1660"
        stroke-width=".11287"/>
 </g>
</svg>
