<?xml version="1.0" encoding="UTF-8" standalone="no"?>
<svg height="512" id="svg378" version="1.0" width="512" x="0" xmlns="http://www.w3.org/2000/svg" xmlns:cc="http://creativecommons.org/ns#" xmlns:dc="http://purl.org/dc/elements/1.1/" xmlns:rdf="http://www.w3.org/1999/02/22-rdf-syntax-ns#"
     y="0">
 <metadata id="metadata3702">
  <rdf:RDF>
   <cc:Work rdf:about="">
  <dc:format>image/svg+xml</dc:format>
  <dc:type rdf:resource="http://purl.org/dc/dcmitype/StillImage"/>
   </cc:Work>
  </rdf:RDF>
 </metadata>
 <defs id="defs380">
  <clipPath clipPathUnits="userSpaceOnUse" id="clipPath6343">
   <rect fill-opacity="0.67" height="708.66" id="rect6345" width="708.66" x="51.624" y="-.0000033379"/>
  </clipPath>
 </defs>
 <g clip-path="url(#clipPath6343)" fill-rule="evenodd" id="flag" transform="matrix(.72249 0 0 .72249 -37.298 .0000024116)">
  <rect fill="#ed0000" height="708.66" id="rect149" stroke-width="1pt" width="1063" x="0" y="0"/>
  <rect fill="#fff" height="141.73" id="rect280" stroke-width="1pt" width="1063" x="0" y="141.73"/>
  <rect fill="#fff" height="141.73" id="rect281" stroke-width="1pt" width="1063" x="0" y="425.2"/>
  <path d="m0 0 609.96 353.88-609.96 353.42v-707.3z" fill="#0050f0" id="path279" stroke-width="1pt"/>
  <path d="m266.19 534.45-10.408-7.432-10.357 7.505 3.852-12.196-10.338-7.531 12.79-0.105 3.967-12.159 4.052 12.131 12.79 0.016-10.285 7.602 3.937 12.169z" fill="#fff"
        id="path205" stroke-width=".11287" transform="matrix(6.3097 0 0 6.5987 -1411.4 -3076.2)"/>
 </g>
</svg>
