<?xml version="1.0" encoding="UTF-8" standalone="no"?>
<svg height="512" id="svg378" version="1" width="512" x="0" xmlns="http://www.w3.org/2000/svg" xmlns:cc="http://creativecommons.org/ns#" xmlns:dc="http://purl.org/dc/elements/1.1/" xmlns:rdf="http://www.w3.org/1999/02/22-rdf-syntax-ns#"
     y="0">
 <metadata id="metadata3079">
  <rdf:RDF>
   <cc:Work rdf:about="">
  <dc:format>image/svg+xml</dc:format>
  <dc:type rdf:resource="http://purl.org/dc/dcmitype/StillImage"/>
   </cc:Work>
  </rdf:RDF>
 </metadata>
 <defs id="defs380">
  <clipPath clipPathUnits="userSpaceOnUse" id="clipPath5047">
   <rect fill-opacity="0.67" height="708.66" id="rect5049" width="708.66" x="27.682" y="-.0000033379"/>
  </clipPath>
 </defs>
 <g clip-path="url(#clipPath5047)" fill-rule="evenodd" id="flag" transform="matrix(.72249 0 0 .72249 -20 .0000024116)">
  <rect fill="#fff" height="708.66" id="rect149" stroke-width="1pt" width="1063" x="0" y="0"/>
  <rect fill="#df0000" height="354.33" id="rect148" stroke-width="1pt" width="1063" x="0" y="0"/>
  <path d="m263.4 473.62c-23.186 5.316-40.414 22.484-45.285 45.826-6.618 31.712 14.039 62.762 45.812 69.39-32.101 9.152-65.273-9.301-74.341-41.106-9.067-31.804 9.386-64.976 41.191-74.044 11.165-3.184 21.444-3.204 32.623-0.066z"
        fill="#fff"
        id="path141" stroke-width=".52437" transform="matrix(2.1168 0 0 2.1168 -312.4 -943.16)"/>
  <polygon fill="#fff" id="polygon142"
           points="249.27 522.33 238.94 514.8 251.72 514.69 255.69 502.53 259.74 514.66 272.53 514.68 262.25 522.28 266.19 534.45 266.19 534.45 255.78 527.02 245.42 534.52" stroke-width=".52437"
           transform="matrix(1.8341 0 0 1.8341 -255.13 -795.56)"/>
  <polygon fill="#fff" id="polygon144"
           points="249.27 522.33 238.94 514.8 251.72 514.69 255.69 502.53 259.74 514.66 272.53 514.68 262.25 522.28 266.19 534.45 266.19 534.45 255.78 527.02 245.42 534.52" stroke-width=".52437"
           transform="matrix(1.8341 0 0 1.8341 -229.2 -718.7)"/>
  <polygon fill="#fff" id="polygon145"
           points="249.27 522.33 238.94 514.8 251.72 514.69 255.69 502.53 259.74 514.66 272.53 514.68 262.25 522.28 266.19 534.45 266.19 534.45 255.78 527.02 245.42 534.52" stroke-width=".52437"
           transform="matrix(1.8341 0 0 1.8341 -142.94 -719.27)"/>
  <polygon fill="#fff" id="polygon146"
           points="249.27 522.33 238.94 514.8 251.72 514.69 255.69 502.53 259.74 514.66 272.53 514.68 262.25 522.28 266.19 534.45 266.19 534.45 255.78 527.02 245.42 534.52" stroke-width=".52437"
           transform="matrix(1.8341 0 0 1.8341 -117.22 -795.5)"/>
  <polygon fill="#fff" id="polygon147"
           points="249.27 522.33 238.94 514.8 251.72 514.69 255.69 502.53 259.74 514.66 272.53 514.68 262.25 522.28 266.19 534.45 266.19 534.45 255.78 527.02 245.42 534.52" stroke-width=".52437"
           transform="matrix(1.8341 0 0 1.8341 -185.51 -846.08)"/>
 </g>
</svg>
