<?xml version="1.0" encoding="UTF-8" standalone="no"?>
<svg height="512" id="svg548" version="1.1" width="512" xmlns="http://www.w3.org/2000/svg" xmlns:cc="http://creativecommons.org/ns#" xmlns:dc="http://purl.org/dc/elements/1.1/"
     xmlns:rdf="http://www.w3.org/1999/02/22-rdf-syntax-ns#">
 <metadata id="metadata3717">
  <rdf:RDF>
   <cc:Work rdf:about="">
  <dc:format>image/svg+xml</dc:format>
  <dc:type rdf:resource="http://purl.org/dc/dcmitype/StillImage"/>
   </cc:Work>
  </rdf:RDF>
 </metadata>
 <defs id="defs550">
  <clipPath clipPathUnits="userSpaceOnUse" id="clipPath7166">
   <rect fill-opacity="0.67" height="496.3" id="rect7168" width="496.3" x="0" y="-.24064"/>
  </clipPath>
 </defs>
 <g clip-path="url(#clipPath7166)" fill-rule="evenodd" id="flag" transform="matrix(1.0316 0 0 1.0316 0 .24825)">
  <rect fill="#ffe300" height="496.3" id="rect558" stroke-width="1pt" width="744.09" x="0" y="-.24065"/>
  <rect fill="#118600" height="99.66" id="rect555" stroke-width="1pt" width="744.09" x="0" y="201.52"/>
  <rect fill="#118600" height="99.66" id="rect570" stroke-width="1pt" width="744.09" x="0" y="-0.000061"/>
  <rect fill="#d80000" height="301.18" id="rect554" stroke-width="1pt" width="297.12" x="0" y="-.000114"/>
  <path d="m130.3 124.25c0-0.83 18.259-51.456 18.259-51.456l16.599 50.626s55.606 1.66 55.606 0.83-43.987 33.198-43.987 33.198 20.748 58.096 19.919 56.436c-0.83-1.66-48.137-34.858-48.137-34.858s-48.136 33.198-47.306 33.198 18.258-54.776 18.258-54.776l-43.156-32.37 53.946-0.83z"
        fill="#fff"
        id="path567"/>
  <rect fill="#118600" height="99.66" id="rect569" stroke-width="1pt" width="744.09" x="0" y="396.4"/>
 </g>
</svg>
