<?xml version="1.0" encoding="UTF-8" standalone="no"?>
<svg height="512" id="svg3446" inkscape:version="0.91 r13725" sodipodi:docname="tj.svg" version="1.1" width="512"
     xmlns="http://www.w3.org/2000/svg" xmlns:cc="http://creativecommons.org/ns#" xmlns:dc="http://purl.org/dc/elements/1.1/" xmlns:inkscape="http://www.inkscape.org/namespaces/inkscape" xmlns:rdf="http://www.w3.org/1999/02/22-rdf-syntax-ns#" xmlns:sodipodi="http://sodipodi.sourceforge.net/DTD/sodipodi-0.dtd" xmlns:xlink="http://www.w3.org/1999/xlink">
  <sodipodi:namedview bordercolor="#666666" borderopacity="1" gridtolerance="10" guidetolerance="10" id="namedview3778" inkscape:current-layer="svg3446" inkscape:cx="320" inkscape:cy="240"
                      inkscape:pageopacity="0" inkscape:pageshadow="2" inkscape:window-height="855" inkscape:window-maximized="1" inkscape:window-width="1389" inkscape:window-x="51" inkscape:window-y="181"
                      inkscape:zoom="0.48097993" objecttolerance="10" pagecolor="#ffffff" showgrid="false"/>
  <metadata id="metadata3750">
    <rdf:RDF>
      <cc:Work rdf:about="">
        <dc:format>image/svg+xml</dc:format>
        <dc:type rdf:resource="http://purl.org/dc/dcmitype/StillImage"/>
        <dc:title></dc:title>
      </cc:Work>
    </rdf:RDF>
  </metadata>
  <defs id="defs3448">
    <clipPath clipPathUnits="userSpaceOnUse" id="clipPath7362">
      <rect height="512" id="rect7364" style="fill-opacity:0.67000002" width="682.66998" x="-85.648003" y="2.3336999e-05"/>
    </clipPath>
  </defs>
  <rect height="512" id="rect3880" style="fill:#006600" width="512" x="0" y="-7.634505e-06"/>
  <rect height="365.71429" id="rect3882" style="fill:#ffffff" width="512" x="0" y="-7.634505e-06"/>
  <rect height="146.28572" id="rect3884" style="fill:#cc0000" width="512" x="0" y="-7.634505e-06"/>
  <g id="g3886" style="fill:#f8c300" transform="matrix(0.7314286,0,0,0.7314286,-256.00002,-6.6666667e-6)">
    <path d="m 672,340.7 a 12.5,12.5 0 0 1 23.3,5.9 l 0,50 9.4,0 0,-50 a 12.5,12.5 0 0 1 23.3,-5.9 29.5,29.5 0 1 0 -56,0" id="path3888" inkscape:connector-curvature="0"/>
    <path d="m 678.7,327.65 a 20,20 0 0 1 21.3,9.55 20,20 0 0 1 21.3,-9.55 21.5,21.5 0 0 0 -42.6,0" id="path3890" inkscape:connector-curvature="0" style="fill:#ffffff"/>
    <path d="m 695.3,376.627 a 38,38 0 0 1 -63.845,24.316 39.5,39.5 0 0 1 -59.734,17.467 c 3.6496,36.426 58.252,28.989 62.32,-6.4288 17.154,30.115 54.873,21.49 65.91,-15.4 z" id="w"
          inkscape:connector-curvature="0"/>
    <use height="100%" id="use3893" transform="matrix(-1,0,0,1,1400,0)" width="100%" x="0" xlink:href="#w" y="0"/>
    <path d="m 658.84,441.31 c -7.6181,16.446 -22.845,19.271 -36.164,5.9953 0,0 5.3539,-3.7831 11.086,-4.826 -1.0748,-4.5744 1.1291,-10.902 4.2354,-14.324 3.2575,2.2264 7.8036,6.6886 8.9598,11.874 8.0291,-1.0394 11.883,1.2815 11.883,1.2815 z" id="r"
          inkscape:connector-curvature="0"/>
    <use height="100%" id="use3896" transform="matrix(0.98665754,0.16280937,-0.16280937,0.98665754,140.23845,-103.23923)" width="100%" x="0" xlink:href="#r" y="0"/>
    <use height="100%" id="use3898" transform="matrix(0.94698622,0.32127419,-0.32127419,0.94698622,295.4141,-182.26885)" width="100%" x="0" xlink:href="#r" y="0"/>
    <path d="m 603,478 a 340,340 0 0 1 194,0" id="path3900" inkscape:connector-curvature="0" style="fill:none;stroke:#f8c300;stroke-width:16"/>
    <g id="g3902" transform="translate(700,380)">
      <g id="g3904" transform="translate(0,-140)">
        <polygon id="s" points="488533,-158734 -301930,415571 0,-513674 301930,415571 -488533,-158734 " transform="scale(4.8669e-5,4.8669e-5)"/>
      </g>
      <g id="h">
        <use height="100%" id="use3908" transform="translate(-70,-121.24356)" width="100%" x="0" xlink:href="#s" y="0"/>
        <use height="100%" id="use3910" transform="translate(-121.24356,-70)" width="100%" x="0" xlink:href="#s" y="0"/>
        <use height="100%" id="use3912" transform="translate(-140,0)" width="100%" x="0" xlink:href="#s" y="0"/>
      </g>
      <use height="100%" id="use3914" transform="scale(-1,1)" width="100%" x="0" xlink:href="#h" y="0"/>
    </g>
  </g>
</svg>
