<?xml version="1.0" encoding="UTF-8" standalone="no"?>
<svg height="512" id="svg548" version="1.1" width="512" xmlns="http://www.w3.org/2000/svg" xmlns:cc="http://creativecommons.org/ns#" xmlns:dc="http://purl.org/dc/elements/1.1/"
     xmlns:rdf="http://www.w3.org/1999/02/22-rdf-syntax-ns#">
 <metadata id="metadata3781">
  <rdf:RDF>
   <cc:Work rdf:about="">
  <dc:format>image/svg+xml</dc:format>
  <dc:type rdf:resource="http://purl.org/dc/dcmitype/StillImage"/>
   </cc:Work>
  </rdf:RDF>
 </metadata>
 <defs id="defs550">
  <clipPath clipPathUnits="userSpaceOnUse" id="clipPath6079">
   <rect fill-opacity="0.67" height="496.06" id="rect6081" width="496.06" x="0" y="-.000032559"/>
  </clipPath>
 </defs>
 <g clip-path="url(#clipPath6079)" fill-rule="evenodd" id="flag" transform="matrix(1.0321 0 0 1.0321 0 .000033605)">
  <rect fill="#cb000f" height="496.06" id="rect672" stroke-width="1pt" width="999.07" x="0" y="-.000015260"/>
  <path d="m0 0c3.133 0 496.06 248.73 496.06 248.73l-496.06 247.33v-496.06z" fill="#f8c00c" id="path671"/>
  <path d="m0 0c2.0843 0 330.01 248.73 330.01 248.73l-330.01 247.33v-496.06z" id="path670"/>
  <path d="m181.87 288.88-58.92-13.058-30.105 51.194-4.71-57.819-58.862-12.956 53.133-24.045-3.1891-57.537 38.983 42.039 53.618-24.447-27.93 52.221 37.983 44.408z" fill="#fff" id="path663"/>
 </g>
</svg>
