<?xml version="1.0" encoding="UTF-8" standalone="no"?>
<svg height="512" id="svg378" version="1" width="512" x="0" xmlns="http://www.w3.org/2000/svg" xmlns:cc="http://creativecommons.org/ns#" xmlns:dc="http://purl.org/dc/elements/1.1/" xmlns:rdf="http://www.w3.org/1999/02/22-rdf-syntax-ns#"
     y="0">
 <metadata id="metadata4083">
  <rdf:RDF>
   <cc:Work rdf:about="">
  <dc:format>image/svg+xml</dc:format>
  <dc:type rdf:resource="http://purl.org/dc/dcmitype/StillImage"/>
   </cc:Work>
  </rdf:RDF>
 </metadata>
 <defs id="defs380">
  <clipPath clipPathUnits="userSpaceOnUse" id="clipPath7035">
   <rect fill-opacity="0.67" height="496.06" id="rect7037" width="496.06" x="124.02" y="-.00026276"/>
  </clipPath>
 </defs>
 <g clip-path="url(#clipPath7035)" fill-rule="evenodd" id="flag" transform="matrix(1.0321 0 0 1.0321 -128 .00027120)">
  <rect fill="#e70013" height="496.06" id="rect171" stroke-width="1pt" width="744.09" x="0" y="-.000249"/>
  <path d="m485.97 255.06c0 67.28-54.541 121.82-121.82 121.82-67.28 0-121.82-54.541-121.82-121.82 0-67.28 54.541-121.82 121.82-121.82 67.28 0 121.82 54.541 121.82 121.82z" fill="#fff"
        id="path554" transform="matrix(1.027 0 0 1.027 -1.2813 -14.137)"/>
  <path d="m357.56 327.49c-45.799 0-82.969-37.17-82.969-82.969 0-45.8 37.17-82.97 82.969-82.97 11.45 0 24.483 2.634 33.336 9.136-60.681 2.284-76.029 53.75-76.029 74.492s9.813 67.001 76.028 73.833c-7.535 4.857-21.885 8.478-33.335 8.478z"
        fill="#e70013"
        id="path556" stroke-width="1pt" transform="translate(15.145 3.2924)"/>
  <polygon d="m 445.79819,282.71201 -37.6733,-13.74419 -24.9227,31.41718 1.42982,-40.07663 -37.58105,-13.99445 38.55697,-11.02452 1.69633,-40.06623 22.3997,33.26309 38.62944,-10.76784 -24.71319,31.58225 z"
           fill="#e70013"
           id="polygon559" points="445.8 282.71 408.12 268.97 383.2 300.38 384.63 260.31 347.05 246.31 385.61 235.29 387.3 195.22 409.7 228.49 448.33 217.72 423.62 249.3" stroke-width="1pt"/>
 </g>
</svg>
