<?xml version="1.0" encoding="UTF-8" standalone="no"?>
<svg height="512" id="svg2498" version="1.1" width="512" xmlns="http://www.w3.org/2000/svg" xmlns:cc="http://creativecommons.org/ns#" xmlns:dc="http://purl.org/dc/elements/1.1/"
     xmlns:rdf="http://www.w3.org/1999/02/22-rdf-syntax-ns#">
 <metadata id="metadata4144">
  <rdf:RDF>
   <cc:Work rdf:about="">
  <dc:format>image/svg+xml</dc:format>
  <dc:type rdf:resource="http://purl.org/dc/dcmitype/StillImage"/>
   </cc:Work>
  </rdf:RDF>
 </metadata>
 <defs id="defs2500">
  <clipPath clipPathUnits="userSpaceOnUse" id="clipPath5808">
   <rect fill-opacity="0.67" height="512" id="rect5810" width="512" x="0" y="0"/>
  </clipPath>
 </defs>
 <g clip-path="url(#clipPath5808)" id="flag">
  <g id="g5564" transform="matrix(1.0043 0 0 1.0043 .000032724 -2.2302)">
   <rect fill="#fff" fill-rule="evenodd" height="127.48" id="rect1310" stroke-width="1pt" width="256.68" x=".0031374" y=".0000030912"/>
   <path d="m0.0031377 0.00036134-0.010693 9.5679 61.254 31.474 23.048 0.668-84.291-41.71z" fill="#c00" id="path549"/>
   <path d="m26.229 0.00036134 74.261 38.79v-38.79h-74.261z" fill="#006" id="path551"/>
   <path d="m110.4 0.00036134v49.519h-110.39v28.297h110.39v49.519h33.968v-49.519h110.39v-28.297h-110.39v-49.519h-33.968z" fill="#c00" id="path552"/>
   <path d="m154.27 0.00036134v36.55l72.65-36.267-72.65-0.28264z" fill="#006" id="path554"/>
   <path d="m156.57 40.535 20.43-0.165 79.37-40.087-21.06 0.34364-78.74 39.908z" fill="#c00" id="path555"/>
   <path d="m0.0031377 86.069v27.118l50.951-26.837-50.951-0.284z" fill="#006" id="path700"/>
   <path d="m196.2 87.189-21.24-0.16494 80.064 39.863-0.52668-9.12-58.297-30.578zm-176.3 40.371 75.072-39.416-19.718 0.131-75.25 39.225" fill="#c00" id="path701"/>
   <path d="m255.83 11.199-60.63 30.067 59.824 0.22388v44.803h-50.951l50.48 27.352 0.74095 13.914-26.963-0.32217-73.794-36.228v36.55h-53.781v-36.55l-69.223 36.452-31.264 0.0981v127.33h509.51v-254.67l-253.41-0.20964m-256.1 14.373-0.26886 26.445 53.64 0.672-53.371-27.117z"
         fill="#006"
         id="path556"/>
   <g fill="#009fca" fill-rule="evenodd" id="g3304" stroke-width="1pt" transform="matrix(.51383 0 0 .51383 -.003673 .00019115)">
  <rect height="496.06" id="rect3302" width="496.06" x="496.06" y="-.000015260"/>
  <rect height="248.03" id="rect3303" width="523.49" x="0" y="248.03"/>
   </g>
   <g fill="#009fca" fill-rule="evenodd" id="g5547" stroke-width="1pt" transform="matrix(.51383 0 0 .51383 -.003673 260)">
  <rect height="515.87" id="rect5549" width="486.16" x="505.97" y="-19.81"/>
  <rect height="521.41" id="rect5551" ry="0" width="523.49" x="-7.1124e-17" y="-25.343"/>
   </g>
   <g fill="#fff40d" fill-rule="evenodd" id="g5553" stroke-width="1pt" transform="matrix(1.2509 0 0 1.2509 -129.15 180.34)">
  <polygon id="polygon136" points="569.1 365.81 591.04 433.16 591.04 433.16 533.77 391.48 476.5 433.15 498.45 365.81 441.12 324.21 511.95 324.28 533.78 256.9 555.61 324.28 626.44 324.23"
           transform="matrix(.25628 0 0 .24119 337.93 -50.489)"/>
  <polygon id="polygon3314" points="569.1 365.81 591.04 433.16 591.04 433.16 533.77 391.48 476.5 433.15 498.45 365.81 441.12 324.21 511.95 324.28 533.78 256.9 555.61 324.28 626.44 324.23"
           transform="matrix(.25628 0 0 .24119 292.37 79.065)"/>
  <polygon id="polygon3315" points="569.1 365.81 591.04 433.16 591.04 433.16 533.77 391.48 476.5 433.15 498.45 365.81 441.12 324.21 511.95 324.28 533.78 256.9 555.61 324.28 626.44 324.23"
           transform="matrix(.25628 0 0 .24119 337.93 49.738)"/>
  <polygon id="polygon3317" points="569.1 365.81 591.04 433.16 591.04 433.16 533.77 391.48 476.5 433.15 498.45 365.81 441.12 324.21 511.95 324.28 533.78 256.9 555.61 324.28 626.44 324.23"
           transform="matrix(.25628 0 0 .24119 142.03 143.7)"/>
  <polygon id="polygon3319" points="569.1 365.81 591.04 433.16 591.04 433.16 533.77 391.48 476.5 433.15 498.45 365.81 441.12 324.21 511.95 324.28 533.78 256.9 555.61 324.28 626.44 324.23"
           transform="matrix(-.25628 0 0 -.24119 468.01 249.77)"/>
  <polygon id="polygon3320" points="569.1 365.81 591.04 433.16 591.04 433.16 533.77 391.48 476.5 433.15 498.45 365.81 441.12 324.21 511.95 324.28 533.78 256.9 555.61 324.28 626.44 324.23"
           transform="matrix(-.25628 0 0 -.24119 521.54 175.74)"/>
  <polygon id="polygon3321" points="569.1 365.81 591.04 433.16 591.04 433.16 533.77 391.48 476.5 433.15 498.45 365.81 441.12 324.21 511.95 324.28 533.78 256.9 555.61 324.28 626.44 324.23"
           transform="matrix(-.25628 0 0 -.24119 566.53 160.36)"/>
  <polygon id="polygon3322" points="569.1 365.81 591.04 433.16 591.04 433.16 533.77 391.48 476.5 433.15 498.45 365.81 441.12 324.21 511.95 324.28 533.78 256.9 555.61 324.28 626.44 324.23"
           transform="matrix(-.25628 0 0 -.24119 521.54 288.49)"/>
  <polygon id="polygon3323" points="569.1 365.81 591.04 433.16 591.04 433.16 533.77 391.48 476.5 433.15 498.45 365.81 441.12 324.21 511.95 324.28 533.78 256.9 555.61 324.28 626.44 324.23"
           transform="matrix(-.25628 0 0 -.24119 468.01 301.59)"/>
   </g>
  </g>
 </g>
</svg>
