<?xml version="1.0" encoding="UTF-8" standalone="no"?>
<svg height="512" id="svg832" version="1.0" width="512" x="0" xmlns="http://www.w3.org/2000/svg" xmlns:cc="http://creativecommons.org/ns#" xmlns:dc="http://purl.org/dc/elements/1.1/" xmlns:rdf="http://www.w3.org/1999/02/22-rdf-syntax-ns#"
     xmlns:xlink="http://www.w3.org/1999/xlink" y="0">
 <metadata id="metadata3192">
  <rdf:RDF>
   <cc:Work rdf:about="">
  <dc:format>image/svg+xml</dc:format>
  <dc:type rdf:resource="http://purl.org/dc/dcmitype/StillImage"/>
   </cc:Work>
  </rdf:RDF>
 </metadata>
 <defs id="defs834">
  <linearGradient id="linearGradient583">
   <stop id="stop584" offset="0" stop-color="#faff00"/>
   <stop id="stop585" offset="1" stop-color="#f5c402"/>
  </linearGradient>
  <linearGradient gradientTransform="scale(.72665 1.3762)" gradientUnits="userSpaceOnUse" id="linearGradient6024" x1="123.79" x2="123.79" xlink:href="#linearGradient583" y1="360.52" y2="459.27"/>
  <clipPath clipPathUnits="userSpaceOnUse" id="clipPath6042">
   <rect fill-opacity="0.67" height="496.74" id="rect6044" width="496.74" x="-.14304" y="-.33916"/>
  </clipPath>
 </defs>
 <g clip-path="url(#clipPath6042)" id="flag" transform="matrix(1.0307 0 0 1.0307 .14744 .34958)">
  <g fill-rule="evenodd" id="g594" transform="matrix(.46905 0 0 .46905 112.73 -59.885)">
   <rect fill="#fff" height="1059" id="rect741" stroke-width="1pt" width="1587" x="-240.65" y="126.95"/>
   <path d="m101.66 488.82c9.641 18.113 21.855 33.027 30.418 58.686 1.846 34.313-2.07 40.849 4.635 57.059 2.696 5.929 6.544 8.378 7.285 22.123-1.146 19.675-9.645 20.899-18 20.359-1.5-6.043-0.002-9.946-10.648-20.357-5.765-6.161-12.613-16.348-16.234-29.493-1.1265-12.074-1.7577-27.767-7.7864-40.892-8.6741-14.17-9.9698-21.069-18.211-28.491-8.486-9.873-8.0016-13.336-12.65-24.094 11.39-18.449 22.187-20.33 41.192-14.9z"
         fill="url(#linearGradient6024)"
         fill-opacity=".56078" id="path593" stroke="#cbaa19" stroke-width="3.125" transform="matrix(-.70971 .70449 -.70449 -.70971 390.96 688.93)"/>
   <path d="m101.66 488.82c9.641 18.113 21.855 33.027 30.418 58.686 1.846 34.313-2.07 40.849 4.635 57.059 2.696 5.929 6.544 8.378 7.285 22.123-1.146 19.675-9.645 20.899-18 20.359-1.5-6.043-0.002-9.946-10.648-20.357-5.765-6.161-12.613-16.348-16.234-29.493-1.1265-12.074-1.7577-27.767-7.7864-40.892-8.6741-14.17-9.9698-21.069-18.211-28.491-8.486-9.873-8.0016-13.336-12.65-24.094 11.39-18.449 22.187-20.33 41.192-14.9z"
         fill="url(#linearGradient6024)"
         fill-opacity=".56078" id="path591" stroke="#cbaa19" stroke-width="3.125" transform="matrix(-.99992 -.012937 .012937 -.99992 101.58 850.68)"/>
   <path d="m101.66 488.82c9.641 18.113 21.855 33.027 30.418 58.686 1.846 34.313-2.07 40.849 4.635 57.059 2.696 5.929 6.544 8.378 7.285 22.123-1.146 19.675-9.645 20.899-18 20.359-1.5-6.043-0.002-9.946-10.648-20.357-5.765-6.161-12.613-16.348-16.234-29.493-1.1265-12.074-1.7577-27.767-7.7864-40.892-8.6741-14.17-9.9698-21.069-18.211-28.491-8.486-9.873-8.0016-13.336-12.65-24.094 11.39-18.449 22.187-20.33 41.192-14.9z"
         fill="url(#linearGradient6024)"
         fill-opacity=".56078" id="path590" stroke="#cbaa19" stroke-width="3.125" transform="matrix(-.69945 -.71468 .71468 -.69945 -212.76 760.55)"/>
   <path d="m101.66 488.82c9.641 18.113 21.855 33.027 30.418 58.686 1.846 34.313-2.07 40.849 4.635 57.059 2.696 5.929 6.544 8.378 7.285 22.123-1.146 19.675-9.645 20.899-18 20.359-1.5-6.043-0.002-9.946-10.648-20.357-5.765-6.161-12.613-16.348-16.234-29.493-1.1265-12.074-1.7577-27.767-7.7864-40.892-8.6741-14.17-9.9698-21.069-18.211-28.491-8.486-9.873-8.0016-13.336-12.65-24.094 11.39-18.449 22.187-20.33 41.192-14.9z"
         fill="url(#linearGradient6024)"
         fill-opacity=".56078" id="path589" stroke="#cbaa19" stroke-width="3.125" transform="matrix(.0071712 -.99997 .99997 .0071712 -371.84 475.5)"/>
   <path d="m101.66 488.82c9.641 18.113 21.855 33.027 30.418 58.686 1.846 34.313-2.07 40.849 4.635 57.059 2.696 5.929 6.544 8.378 7.285 22.123-1.146 19.675-9.645 20.899-18 20.359-1.5-6.043-0.002-9.946-10.648-20.357-5.765-6.161-12.613-16.348-16.234-29.493-1.1265-12.074-1.7577-27.767-7.7864-40.892-8.6741-14.17-9.9698-21.069-18.211-28.491-8.486-9.873-8.0016-13.336-12.65-24.094 11.39-18.449 22.187-20.33 41.192-14.9z"
         fill="url(#linearGradient6024)"
         fill-opacity=".56078" id="path587" stroke="#cbaa19" stroke-width="3.125" transform="matrix(.71126 -.70293 .70293 .71126 -283.29 160.35)"/>
   <path d="m101.66 488.82c9.641 18.113 21.855 33.027 30.418 58.686 1.846 34.313-2.07 40.849 4.635 57.059 2.696 5.929 6.544 8.378 7.285 22.123-1.146 19.675-9.645 20.899-18 20.359-1.5-6.043-0.002-9.946-10.648-20.357-5.765-6.161-12.613-16.348-16.234-29.493-1.1265-12.074-1.7577-27.767-7.7864-40.892-8.6741-14.17-9.9698-21.069-18.211-28.491-8.486-9.873-8.0016-13.336-12.65-24.094 11.39-18.449 22.187-20.33 41.192-14.9z"
         fill="url(#linearGradient6024)"
         fill-opacity=".56078" id="path595" stroke="#cbaa19" stroke-width="3.125" transform="matrix(.70345 .71074 -.71074 .70345 317.95 87.982)"/>
   <path d="m101.66 488.82c9.641 18.113 21.855 33.027 30.418 58.686 1.846 34.313-2.07 40.849 4.635 57.059 2.696 5.929 6.544 8.378 7.285 22.123-1.146 19.675-9.645 20.899-18 20.359-1.5-6.043-0.002-9.946-10.648-20.357-5.765-6.161-12.613-16.348-16.234-29.493-1.1265-12.074-1.7577-27.767-7.7864-40.892-8.6741-14.17-9.9698-21.069-18.211-28.491-8.486-9.873-8.0016-13.336-12.65-24.094 11.39-18.449 22.187-20.33 41.192-14.9z"
         fill="url(#linearGradient6024)"
         fill-opacity=".56078" id="path594" stroke="#cbaa19" stroke-width="3.125" transform="matrix(-.0043019 .99999 -.99999 -.0043019 478.78 373.3)"/>
   <rect fill="#002993" height="120.52" id="rect845" stroke-width="1pt" width="1001.2" x="345.13" y="247.98"/>
   <rect fill="#002993" height="120.52" id="rect846" stroke-width="1pt" width="1001.2" x="345.13" y="482.62"/>
   <path d="m101.66 488.82c9.641 18.113 21.855 33.027 30.418 58.686 1.846 34.313-2.07 40.849 4.635 57.059 2.696 5.929 6.544 8.378 7.285 22.123-1.146 19.675-9.645 20.899-18 20.359-1.5-6.043-0.002-9.946-10.648-20.357-5.765-6.161-12.613-16.348-16.234-29.493-1.1265-12.074-1.7577-27.767-7.7864-40.892-8.6741-14.17-9.9698-21.069-18.211-28.491-8.486-9.873-8.0016-13.336-12.65-24.094 11.39-18.449 22.187-20.33 41.192-14.9z"
         fill="url(#linearGradient6024)"
         fill-opacity=".56078" id="path613" stroke="#cbaa19" stroke-width="3.125"/>
   <rect fill="#002993" height="120.52" id="rect847" stroke-width="1pt" width="1587" x="-240.65" y="714.54"/>
   <rect fill="#002993" height="120.52" id="rect848" stroke-width="1pt" width="1587" x="-240.65" y="947.82"/>
   <path d="m82.66 496.87-29.119 159.36v-159.36h29.119z" fill="#faff00" id="path585" stroke="#cbaa19" stroke-linecap="round" stroke-width="3.125"/>
   <path d="m82.66 496.87-29.119 159.36v-159.36h29.119z" fill="#f5c402" id="path588" stroke="#cbaa19" stroke-width="3.125" transform="matrix(-1 0 0 1 107.08 -.00048828)"/>
   <path d="m82.66 496.87-29.119 159.36v-159.36h29.119z" fill="#faff00" id="path596" stroke="#cbaa19" stroke-linecap="round" stroke-width="3.125"
         transform="matrix(.70581 -.70840 .70840 .70581 -285.33 162.96)"/>
   <path d="m82.66 496.87-29.119 159.36v-159.36h29.119z" fill="#f5c402" id="path597" stroke="#cbaa19" stroke-width="3.125" transform="matrix(-.70581 .70840 .70840 .70581 -209.75 87.104)"/>
   <path d="m82.66 496.87-29.119 159.36v-159.36h29.119z" fill="#faff00" id="path598" stroke="#cbaa19" stroke-linecap="round" stroke-width="3.125"
         transform="matrix(-.0019282 -1 1 -.0019282 -371.37 479.37)"/>
   <path d="m82.66 496.87-29.119 159.36v-159.36h29.119z" fill="#f5c402" id="path599" stroke="#cbaa19" stroke-width="3.125" transform="matrix(.0019282 1 1 -.0019282 -371.57 372.29)"/>
   <path d="m82.66 496.87-29.119 159.36v-159.36h29.119z" fill="#faff00" id="path600" stroke="#cbaa19" stroke-linecap="round" stroke-width="3.125"
         transform="matrix(-.70544 -.70877 .70877 -.70544 -209.93 762.78)"/>
   <path d="m82.66 496.87-29.119 159.36v-159.36h29.119z" fill="#f5c402" id="path601" stroke="#cbaa19" stroke-width="3.125" transform="matrix(.70544 .70877 .70877 -.70544 -285.47 686.88)"/>
   <path d="m82.66 496.87-29.119 159.36v-159.36h29.119z" fill="#faff00" id="path602" stroke="#cbaa19" stroke-linecap="round" stroke-width="3.125"
         transform="matrix(-1 .0019556 -.0019556 -1 107.91 849.92)"/>
   <path d="m82.66 496.87-29.119 159.36v-159.36h29.119z" fill="#f5c402" id="path603" stroke="#cbaa19" stroke-width="3.125" transform="matrix(1 -.0019556 -.0019556 -1 .83117 850.13)"/>
   <path d="m82.66 496.87-29.119 159.36v-159.36h29.119z" fill="#faff00" id="path604" stroke="#cbaa19" stroke-linecap="round" stroke-width="3.125"
         transform="matrix(-.70577 .70844 -.70844 -.70577 392.42 687.04)"/>
   <path d="m82.66 496.87-29.119 159.36v-159.36h29.119z" fill="#f5c402" id="path605" stroke="#cbaa19" stroke-width="3.125" transform="matrix(.70577 -.70844 -.70844 -.70577 316.85 762.9)"/>
   <path d="m82.66 496.87-29.119 159.36v-159.36h29.119z" fill="#faff00" id="path606" stroke="#cbaa19" stroke-linecap="round" stroke-width="3.125"
         transform="matrix(.011057 .99994 -.99994 .011057 477.93 366.77)"/>
   <path d="m82.66 496.87-29.119 159.36v-159.36h29.119z" fill="#f5c402" id="path607" stroke="#cbaa19" stroke-width="3.125" transform="matrix(-.011057 -.99994 -.99994 .011057 479.12 473.85)"/>
   <path d="m82.66 496.87-29.119 159.36v-159.36h29.119z" fill="#faff00" id="path608" stroke="#cbaa19" stroke-linecap="round" stroke-width="3.125"
         transform="matrix(.71235 .70182 -.70182 .71235 313.68 84.677)"/>
   <path d="m82.66 496.87-29.119 159.36v-159.36h29.119z" fill="#f5c402" id="path609" stroke="#cbaa19" stroke-width="3.125" transform="matrix(-.71235 -.70182 -.70182 .71235 389.96 159.83)"/>
   <ellipse cx="52.585" cy="422.29" d="m 134.80975,422.29388 c 0,44.88325 -36.813109,81.26831 -82.224385,81.26831 -45.4112753,0 -82.224388,-36.38506 -82.224388,-81.26831 0,-44.88324 36.8131127,-81.26831 82.224388,-81.26831 45.411276,0 82.224385,36.38507 82.224385,81.26831 z" fill="#faff00" id="path566" rx="82.224" ry="81.268" stroke="#cbaa19" stroke-width="3.125"
            transform="translate(.95610 2.8683)"/>
  </g>
 </g>
</svg>
